<?xml version='1.0' encoding='UTF-8'?>
<svg xmlns="http://www.w3.org/2000/svg" version="1.1" width="158" height="145">
<path d="M0 0 C0.69738281 0.00451172 1.39476562 0.00902344 2.11328125 0.01367188 C3.82555803 0.0253998 5.53779033 0.04333347 7.25 0.0625 C0.41261859 6.93567921 -5.68747478 12.85106842 -14.53125 17 C-22.05460607 20.60273389 -26.57044526 27.64580234 -29.5625 35.25 C-33.53447626 48.00213429 -32.05887647 60.28490234 -26.5 72.375 C-22.86198562 79.16087712 -17.1832851 85.45875042 -9.75 88.0625 C-2.91283296 89.53512059 2.91209178 89.72367012 9.1796875 86.41015625 C12.91093836 83.98132314 16.0619036 81.15950793 19.25 78.0625 C20.673125 76.7321875 20.673125 76.7321875 22.125 75.375 C23.12648051 74.41821393 24.12648719 73.45988278 25.125 72.5 C26.05054687 71.61183594 26.97609375 70.72367187 27.9296875 69.80859375 C30.37852329 66.91039247 31.20889571 64.66593376 32.25 61.0625 C34.66486943 58.64763057 35.37707789 58.7663075 38.6875 58.75 C39.46996094 58.73324219 40.25242187 58.71648437 41.05859375 58.69921875 C43.25 59.0625 43.25 59.0625 45.0078125 60.3046875 C47.31193019 63.56523141 46.87274486 67.24991758 46.25 71.0625 C44.37282388 73.70445157 42.68992074 74.81527181 39.88671875 76.390625 C37.1005847 78.15724037 35.04278393 80.07205743 32.75 82.4375 C31.96753906 83.23542969 31.18507813 84.03335938 30.37890625 84.85546875 C28.80993908 86.4820127 27.24702494 88.11440067 25.6875 89.75 C17.51335909 97.50495419 9.17273426 102.15713879 -2.3125 102.5625 C-14.00436187 102.14740431 -23.97107669 96.29695368 -31.9375 87.9375 C-42.5017747 75.37400997 -45.98327052 60.16515681 -44.96142578 44.10498047 C-43.6720032 31.64850317 -37.26616695 20.02688626 -28.75 11.0625 C-28.04875 10.19625 -27.3475 9.33 -26.625 8.4375 C-19.01840081 2.15378763 -9.63460512 -0.11838362 0 0 Z " fill="#112E47" transform="translate(66.75,18.9375)" />
<path d="M0 0 C-2.22825644 2.22825644 -3.65761628 2.69239369 -6.625 3.625 C-7.44226563 3.88539062 -8.25953125 4.14578125 -9.1015625 4.4140625 C-9.72804688 4.60742188 -10.35453125 4.80078125 -11 5 C-9.20966193 6.31431172 -7.41768797 7.6263953 -5.625 8.9375 C-4.62726563 9.66839844 -3.62953125 10.39929688 -2.6015625 11.15234375 C-0.17182891 12.9779569 -0.17182891 12.9779569 2 14 C3.03485877 16.31808364 4.0355414 18.65175298 5 21 C6.58272601 22.58272601 8.38034003 22.34735747 10.5625 22.5625 C11.38878906 22.64628906 12.21507812 22.73007812 13.06640625 22.81640625 C14.02353516 22.90728516 14.02353516 22.90728516 15 23 C12.70007304 25.45763623 11.31219235 26.33756153 8 27 C7.505 27.495 7.505 27.495 7 28 C2.32626629 28.61179776 -1.59687905 28.59081415 -5.625 26 C-9.54210068 23.67875515 -11.52368185 23.33684175 -16 24 C-18.75329021 25.79562405 -20.52627461 27.05254922 -22 30 C-22.64430545 34.68502108 -22.70736314 37.96106039 -20 41.9375 C-16.28373852 44.49242976 -13.41318533 45.17720273 -9 46 C-9.33 47.65 -9.66 49.3 -10 51 C-9.34 51 -8.68 51 -8 51 C-6.72275997 55.71189066 -5.82138168 60.10375651 -6 65 C-9.29969148 70.13961162 -14.26289276 73.124057 -20 75 C-22.23828125 75.1953125 -22.23828125 75.1953125 -24.3125 75.125 C-25.529375 75.08375 -26.74625 75.0425 -28 75 C-26.59719304 72.19438607 -24.9490995 71.99319493 -22.0625 70.875 C-21.16660156 70.52179688 -20.27070312 70.16859375 -19.34765625 69.8046875 C-17 69 -17 69 -15 69 C-15 68.34 -15 67.68 -15 67 C-15.56074219 66.74347656 -16.12148437 66.48695312 -16.69921875 66.22265625 C-25.8180188 61.3768423 -34.80868225 53.03196645 -38 43 C-38.78309171 36.7653852 -39.30457618 30.10392632 -35.9375 24.5625 C-34.29296875 22.484375 -34.29296875 22.484375 -32 20 C-31.4735791 19.42572266 -30.9471582 18.85144531 -30.40478516 18.25976562 C-10.5046134 -3.19705625 -10.5046134 -3.19705625 0 0 Z " fill="#B6BBC1" transform="translate(92,33)" />
<path d="M0 0 C0.33 0.99 0.66 1.98 1 3 C0 5 0 5 -3.0625 6.125 C-4.031875 6.41375 -5.00125 6.7025 -6 7 C-6 8.65 -6 10.3 -6 12 C-4.35 12.33 -2.7 12.66 -1 13 C-0.56433716 12.02208496 -0.56433716 12.02208496 -0.11987305 11.02441406 C3.35166124 7.70920477 7.30570967 8.50882113 11.91796875 8.609375 C12.89034988 8.61503479 13.86273102 8.62069458 14.86457825 8.62652588 C17.972718 8.64893071 21.07970824 8.69913519 24.1875 8.75 C26.29360315 8.77005967 28.39972436 8.78831136 30.50585938 8.8046875 C35.67101636 8.84880907 40.83531324 8.9178654 46 9 C45.98839844 10.10859375 45.97679687 11.2171875 45.96484375 12.359375 C45.95546208 13.82291498 45.94636229 15.28645678 45.9375 16.75 C45.92493164 17.84441406 45.92493164 17.84441406 45.91210938 18.9609375 C45.89608316 22.48670558 46.04707287 25.61034916 47 29 C49.45246277 24.10537893 49.6624246 19.05261636 50.125 13.6875 C50.25455078 12.29047852 50.25455078 12.29047852 50.38671875 10.86523438 C50.59790805 8.57735027 50.80211266 6.28906654 51 4 C51.33 4 51.66 4 52 4 C52.69682697 21.24646744 50.3807354 35.43497694 39.12109375 49.31640625 C32.28396382 56.59553246 23.31240275 62.68119178 13.1328125 63.1953125 C11.79673363 63.18221369 10.46071923 63.15865184 9.125 63.125 C8.43664062 63.11597656 7.74828125 63.10695312 7.0390625 63.09765625 C5.35922162 63.07432513 3.67956254 63.03846326 2 63 C2 62.01 2 61.02 2 60 C3.5390625 58.5703125 3.5390625 58.5703125 5.625 57.125 C8.22029588 55.28552713 10.59726232 53.47739547 13 51.375 C15.43722547 49.44552983 17.062657 48.45407327 19.8125 47.25 C26.78419509 43.90465687 32.38991043 38.23981878 35.4375 31.125 C36.63500304 27.50619689 37.4437634 23.93320232 38.09765625 20.1796875 C38.35494507 18.71764893 38.35494507 18.71764893 38.61743164 17.22607422 C38.7436792 16.49146973 38.86992676 15.75686523 39 15 C34.5516793 15.01948672 30.10523756 15.07140066 25.65771484 15.15258789 C24.14675596 15.17569667 22.63563762 15.19014688 21.12451172 15.19555664 C18.94398465 15.2048997 16.76594036 15.24599631 14.5859375 15.29296875 C13.2767334 15.3086792 11.9675293 15.32438965 10.61865234 15.34057617 C5.96660483 16.18831469 4.45734779 17.86218471 1 21 C-3.41094166 21.70890134 -5.38572797 21.33611111 -9.3125 19.1875 C-12.00178952 16.99854341 -13.76998782 15.42821517 -14.3359375 11.9140625 C-14.40125507 8.08645281 -14.21181454 5.47176874 -12.625 1.9375 C-8.64156176 -1.00265679 -4.78835866 -0.41121401 0 0 Z " fill="#384F63" transform="translate(83,58)" />
<path d="M0 0 C0.66 0.33 1.32 0.66 2 1 C1.53625977 1.44802979 1.07251953 1.89605957 0.59472656 2.35766602 C-1.52826566 4.41779602 -3.6391188 6.48996525 -5.75 8.5625 C-6.84441406 9.61920898 -6.84441406 9.61920898 -7.9609375 10.69726562 C-13.08334661 15.7498237 -17.40231108 20.10183772 -18.53125 27.46484375 C-18.46717473 34.58520771 -18.28487443 40.15930807 -14 46 C-13.525625 46.65226562 -13.05125 47.30453125 -12.5625 47.9765625 C-8.45246428 53.09434736 -3.57766906 56.67565294 1.83984375 60.3359375 C2.90912109 61.15964844 2.90912109 61.15964844 4 62 C4 62.66 4 63.32 4 64 C0.22381113 66.26571332 -3.23997366 67.78615269 -7.72265625 67.60546875 C-15.01675059 65.66621554 -21.67651766 59.34097779 -25.78515625 53.16015625 C-31.28937086 43.37291934 -32.64820238 33.07409711 -31 22 C-29.14818077 15.88834218 -26.46116882 10.74168887 -21.4375 6.6875 C-18 5 -18 5 -15.0625 5.1875 C-14.381875 5.455625 -13.70125 5.72375 -13 6 C-13 6.66 -13 7.32 -13 8 C-12.01 8.66 -11.02 9.32 -10 10 C-6.7 6.7 -3.4 3.4 0 0 Z " fill="#223C54" transform="translate(73,38)" />
<path d="M0 0 C0.66 0.33 1.32 0.66 2 1 C1.01 2.32 0.02 3.64 -1 5 C2.21044399 4.53017893 5.15976693 3.9477685 8.25 2.9375 C15.33200667 1.16699833 21.14708866 1.60944953 28 4 C31.41278071 3.67497327 34.0156291 2.65798383 37 1 C37.495 1.99 37.495 1.99 38 3 C39.33295153 3.66742973 40.66632955 4.334008 42 5 C43.53979492 6.38867187 43.53979492 6.38867187 44.98046875 7.96875 C45.50447266 8.53980469 46.02847656 9.11085938 46.56835938 9.69921875 C47.36983398 10.59060547 47.36983398 10.59060547 48.1875 11.5 C48.73341797 12.09425781 49.27933594 12.68851563 49.84179688 13.30078125 C53.8933659 17.74897228 55.38516788 19.87826658 55.2734375 26.0234375 C55 28 55 28 53.4375 30.5 C50.00863886 32.61006839 47.95779649 32.62491523 44 32 C41.125 29.9375 41.125 29.9375 39 27 C38.66073053 24.66752239 38.32759934 22.33414529 38 20 C34.28646566 14.26090148 29.54840839 11.33145943 23.01171875 9.41796875 C14.67276665 7.68540977 9.25418857 9.92419302 2 14 C0.4840625 14.61875 0.4840625 14.61875 -1.0625 15.25 C-5.7513684 18.04336841 -9.27328245 22.04967939 -13 26 C-13.33 25.34 -13.66 24.68 -14 24 C-16.01669827 22.86649466 -16.01669827 22.86649466 -18 22 C-17.67 21.67 -17.34 21.34 -17 21 C-20.14624993 20.73781251 -21.61837017 20.75245633 -24.3125 22.5 C-24.869375 22.995 -25.42625 23.49 -26 24 C-24.66414734 21.00804767 -23.22188495 18.99848525 -20.83984375 16.7578125 C-20.214729 16.16887207 -19.58961426 15.57993164 -18.94555664 14.97314453 C-17.9515686 14.05831299 -17.9515686 14.05831299 -16.9375 13.125 C-16.26517334 12.50093262 -15.59284668 11.87686523 -14.90014648 11.23388672 C-10.24252595 6.97507529 -5.50338242 3.13200626 0 0 Z " fill="#687B8A" transform="translate(76,23)" />
<path d="M0 0 C0.66 0 1.32 0 2 0 C2.36351562 0.99580078 2.36351562 0.99580078 2.734375 2.01171875 C6.30818642 11.4273373 10.51176099 15.72205651 19 21 C16.38513327 30.90896865 11.78237321 37.63299415 3 43 C1.67807196 43.37602547 0.34572383 43.72086514 -1 44 C-1.37511719 43.32453125 -1.75023437 42.6490625 -2.13671875 41.953125 C-7.31123342 32.93356795 -13.15323148 28.28225617 -23 25 C-23 24.34 -23 23.68 -23 23 C-22.21496094 22.6596875 -21.42992188 22.319375 -20.62109375 21.96875 C-9.73574938 16.94679972 -4.17844446 11.21172676 0 0 Z " fill="#B7BBBF" transform="translate(131,97)" />
<path d="M0 0 C-0.32944482 2.86326311 -0.5275619 4.53100198 -2.609375 6.59765625 C-3.66898438 7.32275391 -3.66898438 7.32275391 -4.75 8.0625 C-16.06051545 16.40987722 -26.41269076 25.23807229 -31 39 C-31.85018647 52.71448341 -31.15824354 64.01340505 -21.99609375 74.98828125 C-17.35765065 79.6630331 -12.56258558 82.98682889 -6 84 C-6.99 84.66 -7.98 85.32 -9 86 C-7.68 86.66 -6.36 87.32 -5 88 C-14.92774501 87.96640357 -20.73245623 85.9695817 -27.93359375 79.17578125 C-36.85415869 69.71806401 -40.52471032 58.295695 -40.18359375 45.43359375 C-39.38298432 34.82126021 -35.09522605 24.16251523 -27 17 C-23.18134942 14.3762583 -19.1732682 12.15081412 -15.08203125 9.984375 C-10.72060783 7.62900674 -7.29624289 4.75444325 -3.69921875 1.390625 C-2 0 -2 0 0 0 Z " fill="#9DA6AE" transform="translate(74,21)" />
<path d="M0 0 C1.50971254 0.03013269 3.01948289 0.0575027 4.52929688 0.08203125 C8.2082428 0.14777782 11.88499967 0.25111427 15.5625 0.375 C15.67951614 10.2312477 13.41246542 18.45572695 6.4140625 25.6328125 C5.80304688 26.20773438 5.19203125 26.78265625 4.5625 27.375 C3.99273437 27.92929688 3.42296875 28.48359375 2.8359375 29.0546875 C-1.19370107 32.7531229 -5.46700589 35.14684747 -10.4375 37.375 C-11.4275 37.87 -11.4275 37.87 -12.4375 38.375 C-12.79296875 36.2578125 -12.79296875 36.2578125 -12.4375 33.375 C-10.59711444 31.11487738 -8.8539094 29.2281188 -6.75 27.25 C-6.21955078 26.72535156 -5.68910156 26.20070313 -5.14257812 25.66015625 C-2.1149647 22.7254144 0.8465962 20.42376858 4.5625 18.375 C6.15144072 16.78605928 5.73248411 15.12698576 5.75 12.9375 C5.76417969 12.13441406 5.77835938 11.33132812 5.79296875 10.50390625 C5.76412356 8.15869367 5.76412356 8.15869367 3.5625 6.375 C1.4226368 6.056616 1.4226368 6.056616 -0.9375 6.125 C-1.7315625 6.11984375 -2.525625 6.1146875 -3.34375 6.109375 C-5.65642751 6.18560091 -5.65642751 6.18560091 -7.4375 8.375 C-7.70304687 9.29539062 -7.96859375 10.21578125 -8.2421875 11.1640625 C-9.68183826 15.03135963 -11.58358755 16.92385229 -14.5625 19.75 C-15.92761719 21.06097656 -15.92761719 21.06097656 -17.3203125 22.3984375 C-18.01898438 23.05070312 -18.71765625 23.70296875 -19.4375 24.375 C-20.0975 24.045 -20.7575 23.715 -21.4375 23.375 C-21.8515625 20.65234375 -21.8515625 20.65234375 -22.0625 17.3125 C-22.13726562 16.20777344 -22.21203125 15.10304688 -22.2890625 13.96484375 C-22.33804688 13.11019531 -22.38703125 12.25554687 -22.4375 11.375 C-23.0975 11.375 -23.7575 11.375 -24.4375 11.375 C-24.33420921 7.86311304 -23.2618228 5.71670959 -20.90625 3.21875 C-15.11485983 -1.57376769 -7.08359287 -0.24578096 0 0 Z " fill="#A3ADB4" transform="translate(106.4375,72.625)" />
<path d="M0 0 C0.99 0.33 1.98 0.66 3 1 C3.10957031 1.68964844 3.21914062 2.37929687 3.33203125 3.08984375 C5.66190695 17.00991607 5.66190695 17.00991607 14 28 C37.61263353 44.08396777 93.37833194 34.46051852 121 33 C121.99 34.98 121.99 34.98 123 37 C120.31239319 37.89586894 118.74417017 38.13215977 115.98606873 38.15390015 C115.17180923 38.16250061 114.35754974 38.17110107 113.51861572 38.17996216 C112.62873962 38.18422211 111.73886353 38.18848206 110.82202148 38.19287109 C109.88179642 38.20104858 108.94157135 38.20922607 107.97285461 38.21765137 C104.85560744 38.24249795 101.73840591 38.25902273 98.62109375 38.2734375 C97.55513536 38.27876118 96.48917698 38.28408485 95.39091682 38.28956985 C89.74491215 38.31630277 84.09892956 38.33567417 78.45288086 38.35009766 C73.78829256 38.36341879 69.12414358 38.39123799 64.4597168 38.43212891 C58.82167899 38.48155369 53.18403872 38.50623143 47.54579353 38.51332474 C45.40208664 38.52002151 43.25838807 38.53520231 41.11480522 38.55921555 C18.66571979 38.79627808 18.66571979 38.79627808 9.125 30.5 C8.42375 29.675 7.7225 28.85 7 28 C6.29875 27.21625 5.5975 26.4325 4.875 25.625 C0.59514949 19.63320929 -0.44386395 14.74726402 -0.1875 7.5625 C-0.17396484 6.83095703 -0.16042969 6.09941406 -0.14648438 5.34570312 C-0.11153874 3.56347578 -0.05774805 1.78163427 0 0 Z " fill="#47505A" transform="translate(7,104)" />
<path d="M0 0 C1.01650635 0.65387695 2.0330127 1.30775391 3.08032227 1.98144531 C7.72983051 4.75171865 12.23026765 4.60251121 17.52734375 4.609375 C18.51626114 4.62591125 19.50517853 4.64244751 20.52406311 4.65948486 C23.66193957 4.70781071 26.7993319 4.72930191 29.9375 4.75 C32.07359186 4.77817251 34.20966132 4.80810173 36.34570312 4.83984375 C41.56371464 4.91356514 46.78159087 4.96529784 52 5 C51.74815329 8.33504724 51.47003486 11.6674235 51.1875 15 C51.11724609 15.93457031 51.04699219 16.86914062 50.97460938 17.83203125 C50.45861137 23.73504846 49.34477023 28.55242422 47 34 C44.40975297 26.22925892 45.25003626 19.24960117 46 11 C31.48 11 16.96 11 2 11 C1.34 12.32 0.68 13.64 0 15 C-2.5 15.875 -2.5 15.875 -5 16 C-7 14 -7 14 -7.25 11.5 C-7 9 -7 9 -5 7 C-2.375 6.875 -2.375 6.875 0 7 C0 5.68 0 4.36 0 3 C-2.64 3 -5.28 3 -8 3 C-8.33 2.34 -8.66 1.68 -9 1 C-5.88111322 -0.55944339 -3.4545855 -0.28316275 0 0 Z " fill="#5F7283" transform="translate(83,56)" />
<path d="M0 0 C0.66 0 1.32 0 2 0 C1.24401914 6.42583732 1.24401914 6.42583732 -0.0625 9.5 C-1.27740263 12.73974034 -1.1344782 15.57080601 -1 19 C0.32 16.69 1.64 14.38 3 12 C3.495 13.485 3.495 13.485 4 15 C-1.99384132 26.79906526 -12.63364685 34.87788228 -25 39 C-27.57265818 39.07029121 -30.11641431 39.09370832 -32.6875 39.0625 C-33.38939453 39.05798828 -34.09128906 39.05347656 -34.81445312 39.04882812 C-36.54300538 39.03706927 -38.27151365 39.01913454 -40 39 C-40 38.01 -40 37.02 -40 36 C-38.3203125 34.46484375 -38.3203125 34.46484375 -36.125 32.9375 C-33.88986913 31.36329493 -31.93742034 29.93742034 -30 28 C-28.65931549 27.56066364 -27.30200584 27.17107385 -25.9375 26.8125 C-16.8345278 23.9001343 -9.12049325 16.69130611 -4.55859375 8.37109375 C-3.67670861 6.60481099 -2.8154783 4.82798263 -1.98046875 3.0390625 C-1 1 -1 1 0 0 Z " fill="#132F48" transform="translate(125,82)" />
<path d="M0 0 C0.69738281 0.00451172 1.39476562 0.00902344 2.11328125 0.01367188 C3.82555803 0.0253998 5.53779033 0.04333347 7.25 0.0625 C4.65232135 2.90590501 2.69799481 4.58342241 -1 5.6875 C-1.78503906 5.92855469 -2.57007813 6.16960938 -3.37890625 6.41796875 C-5.55610371 7.00979343 -7.73485766 7.51381215 -9.9375 8 C-14.00328319 9.13308712 -16.38808738 10.54106553 -19.75 13.0625 C-20.79607422 13.81660156 -20.79607422 13.81660156 -21.86328125 14.5859375 C-25.90437777 17.2898334 -25.90437777 17.2898334 -28.75 21.0625 C-29.41 21.0625 -30.07 21.0625 -30.75 21.0625 C-32.67575373 26.64290637 -34.16458391 32.30551842 -35.65234375 38.015625 C-36.75 41.0625 -36.75 41.0625 -39.75 43.0625 C-40.245 41.5775 -40.245 41.5775 -40.75 40.0625 C-44.34444719 47.25139439 -42.42624984 60.04964163 -40.10595703 67.51489258 C-38.71549929 71.51410904 -37.29345213 75.20622553 -35.01953125 78.7890625 C-34.60058594 79.53929688 -34.18164062 80.28953125 -33.75 81.0625 C-34.08 82.0525 -34.41 83.0425 -34.75 84.0625 C-43.53034136 71.3797847 -46.01162467 57.23637268 -44.75 42.0625 C-42.52310452 30.27904164 -36.97977855 19.72542479 -28.75 11.0625 C-28.04875 10.19625 -27.3475 9.33 -26.625 8.4375 C-19.01840081 2.15378763 -9.63460512 -0.11838362 0 0 Z " fill="#4A5F73" transform="translate(66.75,18.9375)" />
<path d="M0 0 C-2.22825644 2.22825644 -3.65761628 2.69239369 -6.625 3.625 C-7.44226563 3.88539062 -8.25953125 4.14578125 -9.1015625 4.4140625 C-9.72804688 4.60742188 -10.35453125 4.80078125 -11 5 C-9.20966193 6.31431172 -7.41768797 7.6263953 -5.625 8.9375 C-4.62726563 9.66839844 -3.62953125 10.39929688 -2.6015625 11.15234375 C-0.17182891 12.9779569 -0.17182891 12.9779569 2 14 C3.03485877 16.31808364 4.0355414 18.65175298 5 21 C6.58272601 22.58272601 8.38034003 22.34735747 10.5625 22.5625 C11.38878906 22.64628906 12.21507812 22.73007812 13.06640625 22.81640625 C14.02353516 22.90728516 14.02353516 22.90728516 15 23 C12.70007304 25.45763623 11.31219235 26.33756153 8 27 C7.67 27.33 7.34 27.66 7 28 C1.29228934 28.74714667 -2.24559665 28.137973 -7.09375 24.890625 C-10.82364874 23.14796739 -14.97840841 23.70869759 -19 24 C-19.33 22.68 -19.66 21.36 -20 20 C-20.66 20 -21.32 20 -22 20 C-21.47512489 9.68874376 -21.47512489 9.68874376 -18.00390625 5.71484375 C-15.73254999 3.95817906 -13.49376738 2.42136229 -11 1 C-10.32195312 0.60296875 -9.64390625 0.2059375 -8.9453125 -0.203125 C-5.87160819 -1.46223279 -3.18219878 -0.6119613 0 0 Z " fill="#B4B9BF" transform="translate(92,33)" />
<path d="M0 0 C0.66 0.33 1.32 0.66 2 1 C1.01 2.32 0.02 3.64 -1 5 C-0.2575 4.855625 0.485 4.71125 1.25 4.5625 C6.47930517 3.77810422 11.72927776 3.40084781 17 3 C16.34 3.99 15.68 4.98 15 6 C16.06927734 6.14695312 16.06927734 6.14695312 17.16015625 6.296875 C23.31847723 7.25833561 27.80736161 8.53824107 33 12 C32.34 12.33 31.68 12.66 31 13 C28.93359375 12.22265625 28.93359375 12.22265625 26.4375 11.0625 C20.43495746 8.59947681 15.59638491 7.57017778 9.42578125 10.0234375 C6.8989188 11.26987189 4.45581232 12.62018792 2 14 C0.4840625 14.61875 0.4840625 14.61875 -1.0625 15.25 C-5.7513684 18.04336841 -9.27328245 22.04967939 -13 26 C-13.33 25.34 -13.66 24.68 -14 24 C-16.01669827 22.86649466 -16.01669827 22.86649466 -18 22 C-17.67 21.67 -17.34 21.34 -17 21 C-20.14624993 20.73781251 -21.61837017 20.75245633 -24.3125 22.5 C-24.869375 22.995 -25.42625 23.49 -26 24 C-24.66414734 21.00804767 -23.22188495 18.99848525 -20.83984375 16.7578125 C-20.214729 16.16887207 -19.58961426 15.57993164 -18.94555664 14.97314453 C-17.9515686 14.05831299 -17.9515686 14.05831299 -16.9375 13.125 C-16.26517334 12.50093262 -15.59284668 11.87686523 -14.90014648 11.23388672 C-10.24252595 6.97507529 -5.50338242 3.13200626 0 0 Z " fill="#41576B" transform="translate(76,23)" />
<path d="M0 0 C6.78378378 0 6.78378378 0 11 4 C12.11375 5.2375 12.11375 5.2375 13.25 6.5 C19.53461424 12.21328567 26.37393637 13.59507659 34.65063477 13.54589844 C36.02785957 13.56140495 36.02785957 13.56140495 37.4329071 13.57722473 C40.43592297 13.60647458 43.43825962 13.60814813 46.44140625 13.609375 C48.53605928 13.62436867 50.63070054 13.6410983 52.72532654 13.65948486 C58.21449347 13.70303709 63.70350094 13.72313064 69.19281006 13.73822021 C74.80376568 13.75783503 80.41455019 13.79980012 86.02539062 13.83984375 C97.01687415 13.91501453 108.00831913 13.9653855 119 14 C119 14.33 119 14.66 119 15 C91.94 15.33 64.88 15.66 37 16 C37 16.33 37 16.66 37 17 C24.61264375 17.1235989 12.36454563 16.79133092 0 16 C0 10.72 0 5.44 0 0 Z " fill="#D6D8D9" transform="translate(4,128)" />
<path d="M0 0 C2.48644379 2.48644379 2.59479828 4.08321145 3.3125 7.5 C6.05731483 18.90258898 10.82055144 26.395705 20.1875 33.375 C25.7264921 36.23784985 32.46341109 36.84257291 38.4921875 35.40625 C44.27713901 33.08426254 48.57639344 29.2972178 53 25 C53.94875 24.113125 54.8975 23.22625 55.875 22.3125 C56.87648051 21.35571393 57.87648719 20.39738278 58.875 19.4375 C59.80054688 18.54933594 60.72609375 17.66117188 61.6796875 16.74609375 C64.12852329 13.84789247 64.95889571 11.60343376 66 8 C68.41486943 5.58513057 69.12707789 5.7038075 72.4375 5.6875 C73.61119141 5.66236328 73.61119141 5.66236328 74.80859375 5.63671875 C77 6 77 6 78.7734375 7.2265625 C80.36227001 9.52379168 80.30775556 10.92162211 80.1875 13.6875 C80.14689453 14.89986328 80.14689453 14.89986328 80.10546875 16.13671875 C80.07066406 16.75160156 80.03585938 17.36648437 80 18 C79.2265625 17.84660156 78.453125 17.69320312 77.65625 17.53515625 C71.48716297 16.49145871 71.48716297 16.49145871 65.703125 18.28125 C63.70174634 20.10650733 61.86143756 22.03319805 60 24 C58.66876792 25.05056613 57.31442991 26.07258481 55.9375 27.0625 C53.31298675 28.97216528 50.93149697 30.97134155 48.5625 33.1875 C43.41796992 37.64219537 36.91684783 39.67829106 30.09375 39.33984375 C20.43201487 37.77161435 13.00280887 32.3487315 7.2109375 24.609375 C2.34193119 16.98206463 -0.59353121 9.10081195 0 0 Z " fill="#435563" transform="translate(33,72)" />
<path d="M0 0 C0.33 0.99 0.66 1.98 1 3 C0 5 0 5 -3.0625 6.125 C-4.031875 6.41375 -5.00125 6.7025 -6 7 C-6 8.65 -6 10.3 -6 12 C-3.65466049 12.76956136 -3.65466049 12.76956136 -1 13 C-0.55487061 12.51748779 -0.10974121 12.03497559 0.34887695 11.5378418 C2.62322861 9.41953024 4.03899527 9.65385541 7.10546875 9.70703125 C8.08837891 9.71669922 9.07128906 9.72636719 10.08398438 9.73632812 C11.10814453 9.76146484 12.13230469 9.78660156 13.1875 9.8125 C14.74114258 9.83280273 14.74114258 9.83280273 16.32617188 9.85351562 C18.88463699 9.88888611 21.4420578 9.93824456 24 10 C23.67 11.32 23.34 12.64 23 14 C28.28 14 33.56 14 39 14 C39 14.33 39 14.66 39 15 C37.59306885 15.00616333 37.59306885 15.00616333 36.15771484 15.01245117 C32.65695466 15.03952002 29.15792275 15.08869341 25.65771484 15.15258789 C24.14675596 15.17569667 22.63563762 15.19014688 21.12451172 15.19555664 C18.94398465 15.2048997 16.76594036 15.24599631 14.5859375 15.29296875 C13.2767334 15.3086792 11.9675293 15.32438965 10.61865234 15.34057617 C5.96660483 16.18831469 4.45734779 17.86218471 1 21 C-3.41094166 21.70890134 -5.38572797 21.33611111 -9.3125 19.1875 C-12.00178952 16.99854341 -13.76998782 15.42821517 -14.3359375 11.9140625 C-14.40125507 8.08645281 -14.21181454 5.47176874 -12.625 1.9375 C-8.64156176 -1.00265679 -4.78835866 -0.41121401 0 0 Z " fill="#294157" transform="translate(83,58)" />
<path d="M0 0 C0.33 0 0.66 0 1 0 C1.02578125 0.88300781 1.0515625 1.76601562 1.078125 2.67578125 C1.66096088 15.00805863 4.10193703 25.03228488 13 34 C17.44463328 37.62127068 21.27781139 40.11657439 27 41 C26.01 41.66 25.02 42.32 24 43 C25.32 43.66 26.64 44.32 28 45 C18.07225499 44.96640357 12.26754377 42.9695817 5.06640625 36.17578125 C-0.97525632 29.77031965 -5.64861138 21.9604099 -6 13 C-5.5625 10.0625 -5.5625 10.0625 -5 8 C-3.68 7.67 -2.36 7.34 -1 7 C-0.67 4.69 -0.34 2.38 0 0 Z " fill="#8C959C" transform="translate(41,64)" />
<path d="M0 0 C2.97 0.33 5.94 0.66 9 1 C8.67 2.65 8.34 4.3 8 6 C8.66 6 9.32 6 10 6 C11.27724003 10.71189066 12.17861832 15.10375651 12 20 C8.70030852 25.13961162 3.73710724 28.124057 -2 30 C-4.23828125 30.1953125 -4.23828125 30.1953125 -6.3125 30.125 C-7.529375 30.08375 -8.74625 30.0425 -10 30 C-8.59719304 27.19438607 -6.9490995 26.99319493 -4.0625 25.875 C-3.16660156 25.52179688 -2.27070312 25.16859375 -1.34765625 24.8046875 C1 24 1 24 3 24 C3 23.34 3 22.68 3 22 C2.360625 21.773125 1.72125 21.54625 1.0625 21.3125 C-1 20 -1 20 -1.875 17.8125 C-2.0341499 14.23162716 -0.99081164 11.43869922 0 8 C0.16547269 5.30515906 0.0948657 2.70367241 0 0 Z " fill="#D1D7DB" transform="translate(74,78)" />
<path d="M0 0 C0.495 1.485 0.495 1.485 1 3 C-2.40036442 4.13345481 -4.99368029 4.12701927 -8.5793457 4.12939453 C-9.57504074 4.13202301 -9.57504074 4.13202301 -10.59085083 4.13470459 C-12.78585422 4.13910641 -14.98077703 4.13618998 -17.17578125 4.1328125 C-18.70411698 4.13348626 -20.2324526 4.13445689 -21.76078796 4.13571167 C-24.96610534 4.13718658 -28.17139485 4.1350416 -31.37670898 4.13037109 C-35.47556192 4.12468839 -39.57434916 4.12794484 -43.67319965 4.13394356 C-46.83113596 4.1375671 -49.98905685 4.1364021 -53.14699364 4.13381577 C-54.65759476 4.1331507 -56.1681973 4.13396016 -57.67879677 4.13629532 C-59.79672542 4.13884968 -61.91454976 4.13494158 -64.0324707 4.12939453 C-65.23587601 4.12859894 -66.43928131 4.12780334 -67.67915344 4.12698364 C-70.87143805 4.004916 -73.86588278 3.6011678 -77 3 C-77 2.67 -77 2.34 -77 2 C-79.31 1.67 -81.62 1.34 -84 1 C-84 0.67 -84 0.34 -84 0 C-83.33475311 0.00222061 -82.66950623 0.00444122 -81.98410034 0.00672913 C-74.94122872 0.02917871 -67.89836755 0.04406833 -60.85546875 0.05493164 C-58.24120673 0.05990233 -55.62694739 0.06668121 -53.01269531 0.07543945 C-39.23510091 0.12037788 -25.49745548 0.12409541 -11.74142456 -0.7353363 C-7.63492789 -0.97564457 -4.0167323 -1.10868385 0 0 Z " fill="#5A626C" transform="translate(129,138)" />
<path d="M0 0 C1.670625 0.4021875 1.670625 0.4021875 3.375 0.8125 C4.695 0.8125 6.015 0.8125 7.375 0.8125 C8.80087857 1.10392044 10.21878602 1.43750961 11.625 1.8125 C12.8625 2.1425 14.1 2.4725 15.375 2.8125 C15.375 3.1425 15.375 3.4725 15.375 3.8125 C14.26125 3.93625 13.1475 4.06 12 4.1875 C8.34396323 4.4590813 8.34396323 4.4590813 6.375 6.8125 C6.10945313 7.73289062 5.84390625 8.65328125 5.5703125 9.6015625 C4.13066174 13.46885963 2.22891245 15.36135229 -0.75 18.1875 C-2.11511719 19.49847656 -2.11511719 19.49847656 -3.5078125 20.8359375 C-4.20648438 21.48820312 -4.90515625 22.14046875 -5.625 22.8125 C-6.285 22.4825 -6.945 22.1525 -7.625 21.8125 C-8.0390625 19.08984375 -8.0390625 19.08984375 -8.25 15.75 C-8.32476562 14.64527344 -8.39953125 13.54054688 -8.4765625 12.40234375 C-8.52554688 11.54769531 -8.57453125 10.69304687 -8.625 9.8125 C-9.285 9.8125 -9.945 9.8125 -10.625 9.8125 C-10.40922233 6.03639069 -9.60297898 4.78838174 -7 1.9375 C-3.625 -0.1875 -3.625 -0.1875 0 0 Z " fill="#9CA3A9" transform="translate(92.625,74.1875)" />
<path d="M0 0 C0.671875 1.796875 0.671875 1.796875 1 4 C-0.109375 5.640625 -0.109375 5.640625 -1.75 7.25 C-5.16413367 10.91026888 -6.50040819 14.25129262 -8 19 C-8.99 19 -9.98 19 -11 19 C-11 22.96 -11 26.92 -11 31 C-10.34 31 -9.68 31 -9 31 C-9 32.65 -9 34.3 -9 36 C-8.34 36.33 -7.68 36.66 -7 37 C-7.185625 37.495 -7.37125 37.99 -7.5625 38.5 C-8.05337999 41.30502852 -7.66666985 43.64855235 -7.265625 46.4453125 C-6.53540913 53.46827102 -5.80764725 60.6152945 -9 67 C-9.33 62.38 -9.66 57.76 -10 53 C-10.33 53 -10.66 53 -11 53 C-11.33 58.28 -11.66 63.56 -12 69 C-12.33 69 -12.66 69 -13 69 C-13.10196962 61.92004795 -13.17170349 54.84028743 -13.21972656 47.75976562 C-13.23976034 45.35442019 -13.26699522 42.94912297 -13.30175781 40.54394531 C-13.35063808 37.07344622 -13.37305205 33.60359474 -13.390625 30.1328125 C-13.41127014 29.06886261 -13.43191528 28.00491272 -13.45318604 26.90872192 C-13.45580395 18.06776534 -11.56871533 10.00527676 -5.375 3.375 C-4.78460938 2.72273437 -4.19421875 2.07046875 -3.5859375 1.3984375 C-2 0 -2 0 0 0 Z " fill="#B5B8BD" transform="translate(19,5)" />
<path d="M0 0 C-2.22825644 2.22825644 -3.65761628 2.69239369 -6.625 3.625 C-7.44226563 3.88539062 -8.25953125 4.14578125 -9.1015625 4.4140625 C-9.72804688 4.60742188 -10.35453125 4.80078125 -11 5 C-10.46375 5.515625 -9.9275 6.03125 -9.375 6.5625 C-8 9 -8 9 -8.75 12.3125 C-9.1625 13.529375 -9.575 14.74625 -10 16 C-10.36950465 18.32787927 -10.71352467 20.66045145 -11 23 C-14.96 23.495 -14.96 23.495 -19 24 C-19.33 22.68 -19.66 21.36 -20 20 C-20.66 20 -21.32 20 -22 20 C-21.47512489 9.68874376 -21.47512489 9.68874376 -18.00390625 5.71484375 C-15.73254999 3.95817906 -13.49376738 2.42136229 -11 1 C-10.32195312 0.60296875 -9.64390625 0.2059375 -8.9453125 -0.203125 C-5.87160819 -1.46223279 -3.18219878 -0.6119613 0 0 Z " fill="#DBE0E6" transform="translate(92,33)" />
<path d="M0 0 C4.90767188 0.81794531 8.72658882 3.19866489 12.375 6.5625 C13.85480782 9.50841371 14.375 11.24986272 14.375 14.5625 C16.685 14.5625 18.995 14.5625 21.375 14.5625 C21.375 13.5725 21.375 12.5825 21.375 11.5625 C22.035 11.5625 22.695 11.5625 23.375 11.5625 C24.25395423 14.43907748 24.57789616 16.02627442 23.5 18.875 C20.54832538 21.2189769 18.2091582 21.0022236 14.53125 20.99609375 C11.88490835 20.46394896 10.98037968 19.70636127 9.375 17.5625 C9.230625 16.551875 9.08625 15.54125 8.9375 14.5 C8.751875 13.530625 8.56625 12.56125 8.375 11.5625 C6.60724299 10.49763948 6.60724299 10.49763948 4.375 9.5625 C2.61702438 8.53435062 0.86727573 7.49203531 -0.875 6.4375 C-1.76703125 5.89867187 -2.6590625 5.35984375 -3.578125 4.8046875 C-4.59132813 4.18980469 -4.59132813 4.18980469 -5.625 3.5625 C-3.66248822 1.41062304 -2.93300143 0.62850031 0 0 Z " fill="#526271" transform="translate(85.625,35.4375)" />
<path d="M0 0 C0.80066895 -0.00058411 1.60133789 -0.00116821 2.42626953 -0.00177002 C5.0562775 0.00100282 7.68513298 0.03205572 10.31494141 0.06347656 C12.14481996 0.07094183 13.97470653 0.07663341 15.80459595 0.08062744 C20.60848264 0.09586133 25.41188151 0.13512368 30.21557617 0.17944336 C35.12232872 0.2204446 40.02916049 0.23864881 44.93603516 0.25878906 C54.55473844 0.3016202 64.17308052 0.36984423 73.79150391 0.45410156 C71.39254912 2.85305635 70.83179768 2.71331149 67.55712891 2.75708008 C66.24566895 2.78204308 66.24566895 2.78204308 64.90771484 2.80751038 C63.48894043 2.82013161 63.48894043 2.82013161 62.04150391 2.83300781 C61.07245117 2.85000229 60.10339844 2.86699677 59.10498047 2.88450623 C56.00055497 2.937762 52.89614339 2.97798545 49.79150391 3.01660156 C46.68693372 3.06049343 43.58246878 3.10718359 40.47802734 3.15940857 C38.54386254 3.19141885 36.60960485 3.21829224 34.67529297 3.23963928 C33.80098633 3.25312912 32.92667969 3.26661896 32.02587891 3.28051758 C31.25469727 3.29002945 30.48351563 3.29954132 29.68896484 3.30934143 C27.70358451 3.34061197 27.70358451 3.34061197 25.79150391 4.45410156 C25.79150391 3.79410156 25.79150391 3.13410156 25.79150391 2.45410156 C21.47804996 2.50640225 17.16653346 2.60158148 12.85400391 2.70410156 C11.64164063 2.71828125 10.42927734 2.73246094 9.18017578 2.74707031 C1.74764668 2.94849387 -3.6698656 3.95310256 -10.20849609 7.45410156 C-11.19849609 7.78410156 -12.18849609 8.11410156 -13.20849609 8.45410156 C-13.53849609 7.13410156 -13.86849609 5.81410156 -14.20849609 4.45410156 C-9.50249927 0.72328259 -6.02485541 -0.11627128 0 0 Z " fill="#DCE1E3" transform="translate(32.20849609375,-0.4541015625)" />
<path d="M0 0 C1.98 0 3.96 0 6 0 C6 5.28 6 10.56 6 16 C0.39 16 -5.22 16 -11 16 C-11 11 -11 11 -9.35546875 9.12109375 C-8.64003906 8.56550781 -7.92460937 8.00992188 -7.1875 7.4375 C-4.03116372 4.95147875 -4.03116372 4.95147875 -1.61328125 1.78515625 C-1.08089844 1.19605469 -0.54851562 0.60695312 0 0 Z " fill="#FCFCFB" transform="translate(146,128)" />
<path d="M0 0 C0.33 0 0.66 0 1 0 C1.33 3.3 1.66 6.6 2 10 C2.33 10 2.66 10 3 10 C3.33 26.5 3.66 43 4 60 C3.01 59.67 2.02 59.34 1 59 C0.67 62.3 0.34 65.6 0 69 C-0.33 69 -0.66 69 -1 69 C-1.10661048 45.97705652 -1.16520932 23.00048829 0 0 Z " fill="#9CA0A4" transform="translate(7,47)" />
<path d="M0 0 C0.66 0.99 1.32 1.98 2 3 C2.99 2.67 3.98 2.34 5 2 C5.75 4.125 5.75 4.125 6 7 C1.07582769 16.63425018 -7.51763731 22.38652724 -17 27 C-17.66 27.33 -18.32 27.66 -19 28 C-19.35546875 25.8828125 -19.35546875 25.8828125 -19 23 C-17.15961444 20.73987738 -15.4164094 18.8531188 -13.3125 16.875 C-12.78205078 16.35035156 -12.25160156 15.82570313 -11.70507812 15.28515625 C-8.6774647 12.3504144 -5.7159038 10.04876858 -2 8 C-0.03177114 6.03177114 -0.33751619 2.65191291 0 0 Z " fill="#838C95" transform="translate(113,83)" />
<path d="M0 0 C0.66 0.66 1.32 1.32 2 2 C0.9375 3.5625 0.9375 3.5625 -1 5 C-4.57443924 4.74468291 -7.60365077 4.13211641 -11 3 C-17.23547081 2.41472115 -22.19430632 3.18963928 -28.015625 5.3984375 C-30.60020653 6.18195237 -32.47532559 5.89585221 -35 5 C-32.44908419 1.06733813 -29.96208924 -1.03051095 -25.46484375 -2.49609375 C-16.9241444 -4.24213213 -7.99457989 -3.53512863 0 0 Z " fill="#9CACB7" transform="translate(109,23)" />
<path d="M0 0 C0.66 0 1.32 0 2 0 C2.76609345 2.73067679 3.12933293 5.16920983 3.14526367 8.00244141 C3.15483345 9.16351913 3.15483345 9.16351913 3.16459656 10.34805298 C3.16626579 11.58729019 3.16626579 11.58729019 3.16796875 12.8515625 C3.17129715 13.70680511 3.17462555 14.56204773 3.17805481 15.44320679 C3.18310865 17.24696313 3.18546361 19.05072878 3.18530273 20.85449219 C3.18749754 23.6218993 3.20569203 26.38891295 3.22460938 29.15625 C3.22754189 30.9088528 3.22952763 32.6614575 3.23046875 34.4140625 C3.23765427 35.2442691 3.24483978 36.07447571 3.25224304 36.92984009 C3.22883483 42.77116517 3.22883483 42.77116517 1 45 C-0.65 43.68 -2.3 42.36 -4 41 C-3.67781494 40.16428467 -3.35562988 39.32856934 -3.02368164 38.4675293 C-1.90485516 34.67771473 -1.69774638 31.4662791 -1.62109375 27.51953125 C-1.60409927 26.82486252 -1.5871048 26.13019379 -1.56959534 25.41447449 C-1.51685349 23.2139066 -1.4763315 21.0133537 -1.4375 18.8125 C-1.39346782 16.60102586 -1.34673843 14.38969094 -1.29469299 12.1783905 C-1.24836516 10.18001002 -1.21074984 8.1814332 -1.17358398 6.18286133 C-1 3 -1 3 0 0 Z " fill="#888D93" transform="translate(148,73)" />
<path d="M0 0 C0.91120605 0.01047363 1.82241211 0.02094727 2.76123047 0.03173828 C3.74736328 0.03818359 4.73349609 0.04462891 5.74951172 0.05126953 C7.29832031 0.07640625 7.29832031 0.07640625 8.87841797 0.10205078 C9.91869141 0.11107422 10.95896484 0.12009766 12.03076172 0.12939453 C14.60520889 0.15301331 17.17920009 0.18594929 19.75341797 0.22705078 C19.42341797 1.54705078 19.09341797 2.86705078 18.75341797 4.22705078 C24.03341797 4.22705078 29.31341797 4.22705078 34.75341797 4.22705078 C34.75341797 4.55705078 34.75341797 4.88705078 34.75341797 5.22705078 C33.34648682 5.23321411 33.34648682 5.23321411 31.91113281 5.23950195 C28.41037263 5.2665708 24.91134072 5.31574419 21.41113281 5.37963867 C19.90017393 5.40274745 18.38905559 5.41719766 16.87792969 5.42260742 C14.69740262 5.43195048 12.51935833 5.47304709 10.33935547 5.52001953 C9.03015137 5.53572998 7.72094727 5.55144043 6.37207031 5.56762695 C1.72430882 6.41458443 0.22943803 8.11862184 -3.24658203 11.22705078 C-7.12158203 11.53955078 -7.12158203 11.53955078 -10.24658203 11.22705078 C-10.57658203 10.56705078 -10.90658203 9.90705078 -11.24658203 9.22705078 C-9.59658203 9.22705078 -7.94658203 9.22705078 -6.24658203 9.22705078 C-5.81345703 7.55642578 -5.81345703 7.55642578 -5.37158203 5.85205078 C-3.67055529 0.37096462 -3.67055529 0.37096462 0 0 Z " fill="#32495D" transform="translate(87.24658203125,67.77294921875)" />
<path d="M0 0 C1.9375 0.8125 1.9375 0.8125 4 2 C5.24674659 5.74023976 4.76679965 8.16600177 4 12 C3.34 12.66 2.68 13.32 2 14 C1.29289322 15.64991582 0.62056011 17.31562256 0 19 C-5.01243959 15.15619099 -8.1686587 11.6626826 -11 6 C-8.42509258 4.97003703 -5.85660978 3.9478581 -3.25 3 C-0.84296517 2.21568639 -0.84296517 2.21568639 0 0 Z " fill="#9EA3A9" transform="translate(67,74)" />
<path d="M0 0 C1.21171875 -0.04125 2.4234375 -0.0825 3.671875 -0.125 C10.55329432 -0.1849688 15.03376541 0.21662178 20.28320312 4.86328125 C20.80849609 5.40339844 21.33378906 5.94351562 21.875 6.5 C22.47119141 7.10706787 23.06738281 7.71413574 23.68164062 8.33959961 C26.92244701 11.77059653 28.73829087 14.83949257 29.875 19.5 C28.885 20.49 27.895 21.48 26.875 22.5 C26.59527344 21.84773438 26.31554687 21.19546875 26.02734375 20.5234375 C22.86705444 13.63380358 19.76455885 8.96418243 12.90625 5.5078125 C4.12785414 2.26227882 -5.87686435 2.74365539 -15.125 2.5 C-11.37284148 -1.25215852 -5.06486881 0.04229536 0 0 Z " fill="#B5B9BC" transform="translate(119.125,-0.5)" />
<path d="M0 0 C0.66 0.33 1.32 0.66 2 1 C1.01 2.32 0.02 3.64 -1 5 C-0.01 5.66 0.98 6.32 2 7 C1.443125 7.3403125 0.88625 7.680625 0.3125 8.03125 C-4.04770659 10.8005704 -7.64505566 13.5402378 -11.125 17.375 C-14.52762573 20.96063548 -14.52762573 20.96063548 -18.75 21.3125 C-19.8225 21.209375 -20.895 21.10625 -22 21 C-24.40083438 22.35885116 -24.40083438 22.35885116 -26 24 C-24.66414734 21.00804767 -23.22188495 18.99848525 -20.83984375 16.7578125 C-20.214729 16.16887207 -19.58961426 15.57993164 -18.94555664 14.97314453 C-17.9515686 14.05831299 -17.9515686 14.05831299 -16.9375 13.125 C-16.26517334 12.50093262 -15.59284668 11.87686523 -14.90014648 11.23388672 C-10.24252595 6.97507529 -5.50338242 3.13200626 0 0 Z " fill="#5F7486" transform="translate(76,23)" />
<path d="M0 0 C6.27 0 12.54 0 19 0 C19 4.95 19 9.9 19 15 C17.35 15 15.7 15 14 15 C12.1875 12.4375 12.1875 12.4375 11.23828125 10.79296875 C9.22002598 7.87063699 6.51157818 5.78328436 3.8046875 3.515625 C2 2 2 2 0 0 Z " fill="#FDFDFD" transform="translate(133,0)" />
<path d="M0 0 C0.99 0 1.98 0 3 0 C2.67 2.31 2.34 4.62 2 7 C1.34 7 0.68 7 0 7 C-0.309375 8.27875 -0.61875 9.5575 -0.9375 10.875 C-3.46829132 18.43156088 -9.18975001 24.86491177 -16.25 28.5625 C-19.12132548 29.78167391 -21.90066136 30.5695363 -25 31 C-26.0828125 31.3403125 -26.0828125 31.3403125 -27.1875 31.6875 C-27.785625 31.790625 -28.38375 31.89375 -29 32 C-29.66 31.34 -30.32 30.68 -31 30 C-30.38253906 29.79246094 -29.76507813 29.58492187 -29.12890625 29.37109375 C-15.24488593 24.32043796 -7.34959347 15.43568892 -1.1015625 2.37890625 C-0.73804688 1.59386719 -0.37453125 0.80882813 0 0 Z " fill="#747E89" transform="translate(131,90)" />
<path d="M0 0 C1.60031344 3.20062687 0.03173691 5.72271806 -1 9 C-0.34 9 0.32 9 1 9 C1.33 7.35 1.66 5.7 2 4 C3.39864092 7.17872935 2.89282517 8.30111022 1.6875 11.6875 C0 15 0 15 -2 16 C-2.33 15.01 -2.66 14.02 -3 13 C-6.59444719 20.18889439 -4.67624984 32.98714163 -2.35595703 40.45239258 C-0.96549929 44.45160904 0.45654787 48.14372553 2.73046875 51.7265625 C3.14941406 52.47679687 3.56835938 53.22703125 4 54 C3.67 54.99 3.34 55.98 3 57 C-5.84817002 44.21930998 -9.29790908 28.35941261 -6.65136719 12.97314453 C-4.31999168 2.87999445 -4.31999168 2.87999445 0 0 Z " fill="#374E63" transform="translate(29,46)" />
<path d="M0 0 C1.65 0.33 3.3 0.66 5 1 C6.34316248 4.3579062 5.62817826 6.50536729 4.546875 9.8515625 C3.45503795 14.14092233 3.30262689 18.5959823 3 23 C2.34 22.01 1.68 21.02 1 20 C-1.51083114 21.25541557 -1.87125446 22.50063488 -3 25 C-5.32735374 18.01793877 -4.28951839 9.91095366 -2 3 C-1.34 2.01 -0.68 1.02 0 0 Z " fill="#C1C9D0" transform="translate(38,52)" />
<path d="M0 0 C0.37599114 9.28837372 0.08237876 18.13462622 -3 27 C-3.66 27.33 -4.32 27.66 -5 28 C-5 26.02 -5 24.04 -5 22 C-5.33 22 -5.66 22 -6 22 C-5.67 16.39 -5.34 10.78 -5 5 C-8.3 5 -11.6 5 -15 5 C-9.65465308 0.99098981 -6.61092724 -0.11837748 0 0 Z " fill="#92A2AE" transform="translate(134,62)" />
<path d="M0 0 C3.08192208 2.66165998 4.72821237 4.32809427 5.38671875 8.37890625 C5.48969268 13.56720815 4.81991941 18.14688157 3 23 C2.34 23.66 1.68 24.32 1 25 C-0.32 23.35 -1.64 21.7 -3 20 C-1.99232656 17.48081639 -0.98862327 14.97471838 0.125 12.5 C1.09479033 9.7291705 1.4588895 7.90630016 1 5 C-0.9004467 3.15684329 -0.9004467 3.15684329 -3 2 C-3.33 2.99 -3.66 3.98 -4 5 C-7.23306391 6.61653196 -10.45028204 7.39147692 -14 8 C-14 5 -14 5 -12.375 2.875 C-8.49358842 -0.1892723 -4.81769092 0 0 0 Z " fill="#B4B9BF" transform="translate(70,72)" />
<path d="M0 0 C0.33 0 0.66 0 1 0 C1.03738281 0.90621094 1.07476562 1.81242187 1.11328125 2.74609375 C1.46765798 9.31248608 1.93331954 15.1290189 4.4765625 21.23046875 C5 23 5 23 4 26 C2.125 26.8125 2.125 26.8125 0 27 C-4.22744689 24.18170207 -5.01834164 20.87737341 -6 16 C-5.95826753 13.18537677 -5.5556032 10.77801602 -5 8 C-3.68 7.67 -2.36 7.34 -1 7 C-0.67 4.69 -0.34 2.38 0 0 Z " fill="#A7B0B7" transform="translate(41,64)" />
<path d="M0 0 C0.66 0.33 1.32 0.66 2 1 C-2.90129101 6.86372634 -8.58379142 10.20315601 -15.3046875 13.6171875 C-17.85270226 14.75058115 -17.85270226 14.75058115 -19 16 C-20.66617115 16.04063832 -22.33388095 16.042721 -24 16 C-22.43592923 11.02341119 -19.69806208 7.61069654 -15.1875 4.91796875 C-11.7319879 3.46788778 -8.14818417 3.11608127 -4.4609375 2.5625 C-1.83795125 2.19246334 -1.83795125 2.19246334 0 0 Z " fill="#253D52" transform="translate(68,22)" />
<path d="M0 0 C1.98 0 3.96 0 6 0 C6 5.28 6 10.56 6 16 C4.02 16 2.04 16 0 16 C0 21.28 0 26.56 0 32 C-0.33 32 -0.66 32 -1 32 C-1.02465504 27.60343827 -1.04283842 23.2069128 -1.05493164 18.81030273 C-1.05997121 17.31355082 -1.06680287 15.81680384 -1.07543945 14.32006836 C-1.08752159 12.17300193 -1.09323191 10.02600038 -1.09765625 7.87890625 C-1.10289307 6.5854126 -1.10812988 5.29191895 -1.11352539 3.95922852 C-1 1 -1 1 0 0 Z " fill="#FCFCFD" transform="translate(152,48)" />
<path d="M0 0 C1.98 0 3.96 0 6 0 C6 5.28 6 10.56 6 16 C4.35 16 2.7 16 1 16 C1 18.31 1 20.62 1 23 C0.01 23 -0.98 23 -2 23 C-2.66 20.36 -3.32 17.72 -4 15 C-2.68 15 -1.36 15 0 15 C0 10.05 0 5.1 0 0 Z " fill="#EAEAEA" transform="translate(152,0)" />
<path d="M0 0 C1.45603381 1.26189597 2.91107848 2.52506971 4.3515625 3.8046875 C6.93380381 5.6771184 9.95793657 6.13903865 13 7 C15 8.9375 15 8.9375 16 11 C15.67 11.99 15.34 12.98 15 14 C15 13.34 15 12.68 15 12 C14.34 12 13.68 12 13 12 C13 12.99 13 13.98 13 15 C10.69 15.33 8.38 15.66 6 16 C5.87625 15.443125 5.7525 14.88625 5.625 14.3125 C5.41875 13.549375 5.2125 12.78625 5 12 C4.7215625 10.7934375 4.7215625 10.7934375 4.4375 9.5625 C2.25286362 5.66814819 -1.19405953 4.147907 -5 2 C-5.99 1.34 -6.98 0.68 -8 0 C-4.9187194 -0.99041162 -3.01768138 -1.24257468 0 0 Z " fill="#637481" transform="translate(94,35)" />
<path d="M0 0 C2.48644379 2.48644379 2.59479828 4.08321145 3.3125 7.5 C6.05731483 18.90258898 10.82055144 26.395705 20.1875 33.375 C26.10077465 36.51978697 33.4757899 36 40 36 C40 36.66 40 37.32 40 38 C33.14691592 40.28436136 26.9591151 39.21187699 20.51953125 36.3828125 C10.69674849 30.99170382 4.57037236 22.32407586 1.125 11.8125 C0.02643267 7.74587358 -0.2735135 4.1938736 0 0 Z " fill="#46596B" transform="translate(33,72)" />
<path d="M0 0 C4.20763224 1.5027258 5.8027758 4.23332995 8 8 C8 8.66 8 9.32 8 10 C8.99 10 9.98 10 11 10 C11.33 10.99 11.66 11.98 12 13 C13.98 13 15.96 13 18 13 C18 11.68 18 10.36 18 9 C19.32 8.67 20.64 8.34 22 8 C22.48076923 14.25 22.48076923 14.25 20.4375 17.4375 C17.01685857 19.63021887 14.99048721 19.63007693 11 19 C8.125 16.9375 8.125 16.9375 6 14 C5.65458149 11.66842508 5.32205743 9.33491639 5 7 C3.52499245 4.45225968 1.84173237 2.31397144 0 0 Z " fill="#4B5A68" transform="translate(109,36)" />
<path d="M0 0 C0.99 0.33 1.98 0.66 3 1 C3.10957031 1.68964844 3.21914062 2.37929687 3.33203125 3.08984375 C4.63570059 10.81646937 6.37620501 18.01794672 10 25 C9.34 25.66 8.68 26.32 8 27 C3.7005645 25.21157935 2.51265146 23.18927633 0.75 18.99609375 C-0.80169642 12.7973898 -0.28005857 6.34021493 0 0 Z " fill="#515A63" transform="translate(7,104)" />
<path d="M0 0 C1.65 0 3.3 0 5 0 C5 5.28 5 10.56 5 16 C3.35 16 1.7 16 0 16 C-0.33 14.35 -0.66 12.7 -1 11 C-1.99 11.33 -2.98 11.66 -4 12 C-3.625 9.5625 -3.625 9.5625 -3 7 C-2.34 6.67 -1.68 6.34 -1 6 C-0.34227572 2.97065509 -0.34227572 2.97065509 0 0 Z " fill="#FCFCFB" transform="translate(153,112)" />
<path d="M0 0 C4.97314644 0.82885774 8.39016972 3.58716006 12.375 6.5625 C12.045 7.8825 11.715 9.2025 11.375 10.5625 C10.385 10.2325 9.395 9.9025 8.375 9.5625 C8.375 10.2225 8.375 10.8825 8.375 11.5625 C5.17875738 10.02412154 2.15894426 8.27383468 -0.875 6.4375 C-1.76703125 5.89867187 -2.6590625 5.35984375 -3.578125 4.8046875 C-4.59132813 4.18980469 -4.59132813 4.18980469 -5.625 3.5625 C-3.66248822 1.41062304 -2.93300143 0.62850031 0 0 Z " fill="#465969" transform="translate(85.625,35.4375)" />
<path d="M0 0 C1.65 0 3.3 0 5 0 C5 5.28 5 10.56 5 16 C3.35 16 1.7 16 0 16 C0 17.98 0 19.96 0 22 C-0.99 22.33 -1.98 22.66 -3 23 C-2.690625 21.80375 -2.38125 20.6075 -2.0625 19.375 C-0.62245192 12.99180815 -0.35230768 6.51769209 0 0 Z " fill="#EBEBEB" transform="translate(153,96)" />
<path d="M0 0 C0.495 1.485 0.495 1.485 1 3 C-1.78061975 3.92687325 -3.42051859 4.12193396 -6.2878418 4.11352539 C-7.14850754 4.11344986 -8.00917328 4.11337433 -8.8959198 4.11329651 C-9.82100845 4.10813522 -10.74609711 4.10297394 -11.69921875 4.09765625 C-12.64940384 4.0962413 -13.59958893 4.09482635 -14.5785675 4.09336853 C-17.61491029 4.08776875 -20.65117948 4.07521632 -23.6875 4.0625 C-25.74544164 4.05748497 -27.80338444 4.05292207 -29.86132812 4.04882812 C-34.90758046 4.0377994 -39.95377775 4.02053493 -45 4 C-45 3.67 -45 3.34 -45 3 C-32.625 2.505 -32.625 2.505 -20 2 C-20 1.67 -20 1.34 -20 1 C-19.08476563 0.93941406 -18.16953125 0.87882813 -17.2265625 0.81640625 C-15.44378906 0.69072266 -15.44378906 0.69072266 -13.625 0.5625 C-11.84996094 0.44068359 -11.84996094 0.44068359 -10.0390625 0.31640625 C-2.1375 -0.50625 -2.1375 -0.50625 0 0 Z " fill="#4F5761" transform="translate(129,138)" />
<path d="M0 0 C0.99 0 1.98 0 3 0 C3.33 8.91 3.66 17.82 4 27 C3.01 26.67 2.02 26.34 1 26 C0.67 29.3 0.34 32.6 0 36 C-0.33 36 -0.66 36 -1 36 C-1.16631339 23.96999836 -0.6524986 12.0104862 0 0 Z " fill="#7D828A" transform="translate(7,80)" />
<path d="M0 0 C14.52 0 29.04 0 44 0 C44 0.33 44 0.66 44 1 C43.34773438 1.10957031 42.69546875 1.21914063 42.0234375 1.33203125 C37.98486349 2.06469291 34.58826786 2.68785787 30.9375 4.625 C26.91648411 6.50717765 23.36601525 6.26196091 19 6 C21.05233685 3.7522025 22.00667261 2.9977758 25 2 C16.75 1.67 8.5 1.34 0 1 C0 0.67 0 0.34 0 0 Z " fill="#717E89" transform="translate(91,61)" />
<path d="M0 0 C1.31538327 4.15771494 0.34433068 6.8879297 -1 11 C-0.01 10.67 0.98 10.34 2 10 C2.33 11.98 2.66 13.96 3 16 C1.02 16.99 1.02 16.99 -1 18 C-1 17.01 -1 16.02 -1 15 C-2.2065625 14.690625 -2.2065625 14.690625 -3.4375 14.375 C-6 13 -6 13 -7.25 10.3125 C-6.90755018 5.77503987 -4.84226074 4.28204396 -1.56640625 1.3203125 C-1.04949219 0.88460937 -0.53257813 0.44890625 0 0 Z " fill="#C5CAD2" transform="translate(71,42)" />
<path d="M0 0 C1.32 0 2.64 0 4 0 C4 5.28 4 10.56 4 16 C9.94 16 15.88 16 22 16 C22 16.33 22 16.66 22 17 C14.74 17 7.48 17 0 17 C0 11.39 0 5.78 0 0 Z " fill="#FDFDFC" transform="translate(0,128)" />
<path d="M0 0 C14.19 0 28.38 0 43 0 C39.91356227 3.08643773 36.20240583 2.35865008 32.0546875 2.4140625 C30.72716965 2.44311172 30.72716965 2.44311172 29.37283325 2.4727478 C26.54032084 2.53262723 23.70776797 2.57896213 20.875 2.625 C18.95701332 2.66317211 17.03904393 2.70222338 15.12109375 2.7421875 C10.41420252 2.83833555 5.70723104 2.92233542 1 3 C0.67 2.01 0.34 1.02 0 0 Z " fill="#EBEFF1" transform="translate(63,0)" />
<path d="M0 0 C0.33 0.99 0.66 1.98 1 3 C-2.41696177 9.53044338 -7.23139247 14.52638599 -13 19 C-13.66 17.68 -14.32 16.36 -15 15 C-14.52949219 14.39671875 -14.05898437 13.7934375 -13.57421875 13.171875 C-12.64029297 11.97304687 -12.64029297 11.97304687 -11.6875 10.75 C-11.07261719 9.96109375 -10.45773438 9.1721875 -9.82421875 8.359375 C-8.19620982 6.2537703 -6.59064137 4.13390657 -5 2 C-4.67 3.65 -4.34 5.3 -4 7 C-2.68 4.69 -1.36 2.38 0 0 Z " fill="#263C52" transform="translate(128,94)" />
<path d="M0 0 C0.67546875 0.05800781 1.3509375 0.11601563 2.046875 0.17578125 C2.376875 1.16578125 2.706875 2.15578125 3.046875 3.17578125 C2.716875 3.83578125 2.386875 4.49578125 2.046875 5.17578125 C1.0775 5.46453125 0.108125 5.75328125 -0.890625 6.05078125 C-4.05369457 6.86471035 -4.05369457 6.86471035 -5.328125 9.30078125 C-5.534375 9.91953125 -5.740625 10.53828125 -5.953125 11.17578125 C-6.283125 10.18578125 -6.613125 9.19578125 -6.953125 8.17578125 C-8.273125 8.17578125 -9.593125 8.17578125 -10.953125 8.17578125 C-11.953125 5.17578125 -11.953125 5.17578125 -10.640625 2.48828125 C-7.03817117 -0.6115046 -4.60054456 -0.2326865 0 0 Z " fill="#576A7B" transform="translate(80.953125,57.82421875)" />
<path d="M0 0 C0.66 0.33 1.32 0.66 2 1 C-2.405632 7.503552 -6.9145981 13.32289699 -15 15 C-15.66 13.68 -16.32 12.36 -17 11 C-16.34773437 10.61328125 -15.69546875 10.2265625 -15.0234375 9.828125 C-7.09284056 5.49463706 -7.09284056 5.49463706 0 0 Z " fill="#A2A6AB" transform="translate(145,126)" />
<path d="M0 0 C1.65 0 3.3 0 5 0 C5 5.28 5 10.56 5 16 C3.35 16 1.7 16 0 16 C0 10.72 0 5.44 0 0 Z " fill="#E9E9E8" transform="translate(153,64)" />
<path d="M0 0 C1.65 0 3.3 0 5 0 C5 5.28 5 10.56 5 16 C3.35 16 1.7 16 0 16 C0 10.72 0 5.44 0 0 Z " fill="#EAEAE9" transform="translate(153,32)" />
<path d="M0 0 C2.3125 2.625 2.3125 2.625 4 6 C3.75 9.375 3.75 9.375 3 12 C-0.41135826 11.7473068 -1.21937511 10.76495524 -3.625 8.1875 C-5.41359042 5.78702338 -6.84406518 3.73220958 -8 1 C-5.10765685 0.17361624 -3.11257569 0 0 0 Z " fill="#818A91" transform="translate(47,89)" />
<path d="M0 0 C0.66 0.33 1.32 0.66 2 1 C2 8.26 2 15.52 2 23 C0.02 22.01 -1.96 21.02 -4 20 C-3.690625 19.0925 -3.38125 18.185 -3.0625 17.25 C-1.74068977 12.72605794 -1.5309409 8.1620075 -1.24609375 3.4765625 C-1 1 -1 1 0 0 Z " fill="#646B75" transform="translate(148,95)" />
<path d="M0 0 C0.33 1.32 0.66 2.64 1 4 C-3.0903084 7.73936478 -6.86782097 10.74684823 -12 13 C-12.33 12.67 -12.66 12.34 -13 12 C-13.66 12.66 -14.32 13.32 -15 14 C-16.32 13.34 -17.64 12.68 -19 12 C-18.13117188 11.55269531 -17.26234375 11.10539062 -16.3671875 10.64453125 C-10.45570332 7.5433164 -4.89172376 4.61219669 0 0 Z " fill="#B0BECA" transform="translate(93,108)" />
<path d="M0 0 C1.32 0 2.64 0 4 0 C4 5.28 4 10.56 4 16 C2.68 16 1.36 16 0 16 C0 10.72 0 5.44 0 0 Z " fill="#E8E8E8" transform="translate(0,112)" />
<path d="M0 0 C1.32 0 2.64 0 4 0 C4 5.28 4 10.56 4 16 C2.68 16 1.36 16 0 16 C0 10.72 0 5.44 0 0 Z " fill="#FDFDFD" transform="translate(0,96)" />
<path d="M0 0 C1.32 0 2.64 0 4 0 C4 5.28 4 10.56 4 16 C2.68 16 1.36 16 0 16 C0 10.72 0 5.44 0 0 Z " fill="#EBECEB" transform="translate(0,80)" />
<path d="M0 0 C1.32 0 2.64 0 4 0 C4 5.28 4 10.56 4 16 C2.68 16 1.36 16 0 16 C0 10.72 0 5.44 0 0 Z " fill="#FDFEFD" transform="translate(0,64)" />
<path d="M0 0 C1.32 0 2.64 0 4 0 C4 5.28 4 10.56 4 16 C2.68 16 1.36 16 0 16 C0 10.72 0 5.44 0 0 Z " fill="#EBEBEA" transform="translate(0,48)" />
<path d="M0 0 C1.32 0 2.64 0 4 0 C4 5.28 4 10.56 4 16 C2.68 16 1.36 16 0 16 C0 10.72 0 5.44 0 0 Z " fill="#FEFEFE" transform="translate(0,32)" />
<path d="M0 0 C1.11556274 0.01643555 1.11556274 0.01643555 2.25366211 0.03320312 C9.95313399 0.18250261 17.63488847 0.67133749 25.3125 1.25 C25.3125 1.58 25.3125 1.91 25.3125 2.25 C23.8898584 2.26401855 23.8898584 2.26401855 22.43847656 2.27832031 C18.91185242 2.32239231 15.38643797 2.38402783 11.86035156 2.45751953 C10.33572569 2.48570535 8.81095434 2.50693189 7.28613281 2.52099609 C5.09104064 2.54246049 2.89769289 2.58912169 0.703125 2.640625 C-0.61655273 2.66157227 -1.93623047 2.68251953 -3.29589844 2.70410156 C-7.18231816 3.32964392 -8.20267414 4.31869339 -10.6875 7.25 C-11.3475 7.25 -12.0075 7.25 -12.6875 7.25 C-9.74646145 0.68922171 -7.06967241 -0.20814024 0 0 Z " fill="#233646" transform="translate(96.6875,70.75)" />
<path d="M0 0 C0.66 0.66 1.32 1.32 2 2 C-0.2207461 4.27919862 -2.45302104 6.54676959 -4.6875 8.8125 C-5.31333984 9.45509766 -5.93917969 10.09769531 -6.58398438 10.75976562 C-9.81346947 14.02306732 -12.79114463 17.01582533 -17 19 C-19.3125 18.6875 -19.3125 18.6875 -21 18 C-20.01 17.34 -19.02 16.68 -18 16 C-11.25786975 11.39106107 -5.65851449 5.86723018 0 0 Z " fill="#506273" transform="translate(93,90)" />
<path d="M0 0 C1.12067871 0.01047363 2.24135742 0.02094727 3.39599609 0.03173828 C5.21357422 0.04140625 5.21357422 0.04140625 7.06787109 0.05126953 C8.33888672 0.06802734 9.60990234 0.08478516 10.91943359 0.10205078 C12.19818359 0.11107422 13.47693359 0.12009766 14.79443359 0.12939453 C17.96128526 0.15302775 21.12776783 0.18597449 24.29443359 0.22705078 C23.30443359 0.72205078 23.30443359 0.72205078 22.29443359 1.22705078 C22.29443359 1.88705078 22.29443359 2.54705078 22.29443359 3.22705078 C13.38443359 2.89705078 4.47443359 2.56705078 -4.70556641 2.22705078 C-2.70556641 0.22705078 -2.70556641 0.22705078 0 0 Z " fill="#C8CDD0" transform="translate(108.70556640625,-0.22705078125)" />
<path d="M0 0 C4.55555556 0.55555556 4.55555556 0.55555556 6 2 C6.1875 4.4375 6.1875 4.4375 6 7 C5.34 7.66 4.68 8.32 4 9 C-0.55555556 8.44444444 -0.55555556 8.44444444 -2 7 C-2.1875 4.5625 -2.1875 4.5625 -2 2 C-1.34 1.34 -0.68 0.68 0 0 Z " fill="#C1CBD6" transform="translate(78,63)" />
<path d="M0 0 C6.43124858 -0.40195304 11.12767309 0.27356251 17 3 C17.33 3.66 17.66 4.32 18 5 C17.401875 4.773125 16.80375 4.54625 16.1875 4.3125 C15.1046875 4.1578125 15.1046875 4.1578125 14 4 C13.505 4.495 13.01 4.99 12.5 5.5 C12.005 5.995 11.51 6.49 11 7 C6.37358323 6.84578611 3.09906963 3.09906963 0 0 Z " fill="#A7B0B6" transform="translate(88,31)" />
<path d="M0 0 C0.61746094 0.19335938 1.23492188 0.38671875 1.87109375 0.5859375 C7.54348868 2.32996151 13.19193035 3.78217894 19 5 C19 5.33 19 5.66 19 6 C12.73 6 6.46 6 0 6 C0 4.02 0 2.04 0 0 Z " fill="#EFF1F2" transform="translate(22,139)" />
<path d="M0 0 C0.99 0.33 1.98 0.66 3 1 C2.34 1 1.68 1 1 1 C0.731875 1.5775 0.46375 2.155 0.1875 2.75 C-1 5 -1 5 -2.625 7.0625 C-4.2893735 9.0117832 -4.2893735 9.0117832 -4 12 C-6.31 13.32 -8.62 14.64 -11 16 C-11.34375 13.86328125 -11.34375 13.86328125 -11 11 C-9.21336981 8.8508231 -7.53604497 7.06096153 -5.5 5.1875 C-4.97535156 4.68541016 -4.45070313 4.18332031 -3.91015625 3.66601562 C-2.61777468 2.43237867 -1.31030401 1.21458375 0 0 Z " fill="#8693A0" transform="translate(105,95)" />
<path d="M0 0 C0.33 0 0.66 0 1 0 C1.33 1.65 1.66 3.3 2 5 C2.33 5 2.66 5 3 5 C4.27947184 11.65941972 3.81115003 15.81546992 1 22 C-1.43988606 14.68034182 -1.02529209 7.55561405 0 0 Z " fill="#6A7D8F" transform="translate(129,68)" />
<path d="M0 0 C0.33 0 0.66 0 1 0 C1 4.95 1 9.9 1 15 C2.65 15 4.3 15 6 15 C6 15.33 6 15.66 6 16 C4.35 16 2.7 16 1 16 C1 18.31 1 20.62 1 23 C0.01 23 -0.98 23 -2 23 C-2.66 20.36 -3.32 17.72 -4 15 C-2.68 15 -1.36 15 0 15 C0 10.05 0 5.1 0 0 Z " fill="#F4F4F4" transform="translate(152,0)" />
<path d="M0 0 C-1 3 -1 3 -2.9609375 4.1328125 C-4.15589844 4.62394531 -4.15589844 4.62394531 -5.375 5.125 C-6.16648437 5.45757813 -6.95796875 5.79015625 -7.7734375 6.1328125 C-9.49732902 6.80422288 -11.24491183 7.41497061 -13 8 C-13.33 6.68 -13.66 5.36 -14 4 C-9.09075703 0.07260562 -6.26079448 -0.43177893 0 0 Z " fill="#D1D5D8" transform="translate(32,0)" />
<path d="M0 0 C1.32 0.66 2.64 1.32 4 2 C2.64792758 9.49785612 2.64792758 9.49785612 -0.5 11.9375 C-1.325 12.288125 -2.15 12.63875 -3 13 C-3.99 13.495 -3.99 13.495 -5 14 C-4.28269264 10.76834156 -3.18684926 7.81292078 -1.9375 4.75 C-1.57527344 3.85796875 -1.21304688 2.9659375 -0.83984375 2.046875 C-0.56269531 1.37140625 -0.28554687 0.6959375 0 0 Z " fill="#AAADB2" transform="translate(146,116)" />
<path d="M0 0 C1.76647063 2.64970595 2.97014997 5.01498099 4.1875 7.9375 C4.55230469 8.79214844 4.91710937 9.64679688 5.29296875 10.52734375 C6.05225403 13.18274477 5.93187432 14.44179725 5 17 C4.01 17 3.02 17 2 17 C1.67 13.04 1.34 9.08 1 5 C0.34 5 -0.32 5 -1 5 C-0.67 3.35 -0.34 1.7 0 0 Z " fill="#AFB4BA" transform="translate(83,79)" />
<path d="M0 0 C3.85645478 1.13940709 7.06505829 2.17794066 10 5 C10 5.99 10 6.98 10 8 C5.12637153 7.54663921 2.60957611 6.2910841 -1 3 C-0.67 2.01 -0.34 1.02 0 0 Z " fill="#374D63" transform="translate(87,36)" />
<path d="M0 0 C0.49230769 6.4 0.49230769 6.4 -2 9.4375 C-2.99 10.2109375 -2.99 10.2109375 -4 11 C-5.32 10.34 -6.64 9.68 -8 9 C-8 8.01 -8 7.02 -8 6 C-6.68 5.34 -5.36 4.68 -4 4 C-4 3.01 -4 2.02 -4 1 C-1 0 -1 0 0 0 Z " fill="#5B6A77" transform="translate(131,44)" />
<path d="M0 0 C-0.07985247 2.79483647 -0.48003213 4.48140047 -2.484375 6.48046875 C-5.90298428 9.08825404 -5.90298428 9.08825404 -8 10 C-10.23046875 9.6328125 -10.23046875 9.6328125 -12 9 C-10.89902432 7.87187697 -9.79408444 6.74762189 -8.6875 5.625 C-8.07261719 4.99851562 -7.45773438 4.37203125 -6.82421875 3.7265625 C-2.88687783 0 -2.88687783 0 0 0 Z " fill="#D8E1E8" transform="translate(74,21)" />
<path d="M0 0 C0.99 0.33 1.98 0.66 3 1 C3.94921875 3.06640625 3.94921875 3.06640625 4.6875 5.5625 C4.93886719 6.38878906 5.19023437 7.21507813 5.44921875 8.06640625 C5.63097656 8.70449219 5.81273437 9.34257812 6 10 C3.69 9.67 1.38 9.34 -1 9 C-1.09765625 2.84765625 -1.09765625 2.84765625 -1 1 C-0.67 0.67 -0.34 0.34 0 0 Z " fill="#F5F7F7" transform="translate(5,119)" />
<path d="M0 0 C0.33 0.99 0.66 1.98 1 3 C-3.69393259 7.34036364 -8.16298804 11.30599448 -14 14 C-16.203125 13.59375 -16.203125 13.59375 -18 13 C-17.28714844 12.64808594 -16.57429688 12.29617187 -15.83984375 11.93359375 C-9.54582633 8.68916754 -4.64601691 5.359569 0 0 Z " fill="#556878" transform="translate(114,96)" />
<path d="M0 0 C0.99 0.99 1.98 1.98 3 3 C2.52269162 4.4589426 2.04308958 5.91713496 1.5625 7.375 C1.29566406 8.18710937 1.02882813 8.99921875 0.75390625 9.8359375 C0 12 0 12 -1 14 C-0.34 14.33 0.32 14.66 1 15 C-0.32 15 -1.64 15 -3 15 C-3.20749784 9.91630285 -2.63931134 5.82150395 -1 1 C-0.67 0.67 -0.34 0.34 0 0 Z " fill="#C4C8CE" transform="translate(84,41)" />
<path d="M0 0 C0.66 0 1.32 0 2 0 C2.32613281 0.95261719 2.65226562 1.90523438 2.98828125 2.88671875 C3.42939503 4.15374769 3.87081771 5.42066913 4.3125 6.6875 C4.74175781 7.92886719 5.17101562 9.17023438 5.61328125 10.44921875 C6.86134612 13.96819359 6.86134612 13.96819359 8.73046875 16.76953125 C9.14941406 17.50558594 9.56835938 18.24164063 10 19 C9.67 19.99 9.34 20.98 9 22 C4.68179318 15.76259015 0 7.82403812 0 0 Z " fill="#30465A" transform="translate(23,81)" />
<path d="M0 0 C0.33 1.32 0.66 2.64 1 4 C1.7425 4.144375 2.485 4.28875 3.25 4.4375 C5.52027739 4.90187492 7.75759479 5.41863569 10 6 C9.67 7.32 9.34 8.64 9 10 C7.35 10 5.7 10 4 10 C4 8.68 4 7.36 4 6 C1.69 5.67 -0.62 5.34 -3 5 C-2.01 3.35 -1.02 1.7 0 0 Z " fill="#B3B8BC" transform="translate(58,56)" />
<path d="M0 0 C2.91880126 0.25524497 5.8339763 0.52850076 8.75 0.8125 C9.575 0.88275391 10.4 0.95300781 11.25 1.02539062 C18.79475636 1.78595074 18.79475636 1.78595074 22 5 C16.22240116 5.12036664 10.72040011 4.8320582 5 4 C5 3.67 5 3.34 5 3 C3.35 2.67 1.7 2.34 0 2 C0 1.34 0 0.68 0 0 Z " fill="#4D5660" transform="translate(36,137)" />
<path d="M0 0 C-3.465 2.97 -3.465 2.97 -7 6 C-7.33 5.01 -7.66 4.02 -8 3 C-9.65 3.66 -11.3 4.32 -13 5 C-11.84088961 1.52266883 -11.31738459 1.28437989 -8.1875 -0.3125 C-7.50042969 -0.67988281 -6.81335937 -1.04726563 -6.10546875 -1.42578125 C-4 -2 -4 -2 0 0 Z " fill="#AFBAC5" transform="translate(65,32)" />
<path d="M0 0 C4.02992782 0.55312735 8.02022924 1.1558062 12 2 C11.01 2.66 10.02 3.32 9 4 C10.32 4.66 11.64 5.32 13 6 C9.04 5.67 5.08 5.34 1 5 C0.67 3.35 0.34 1.7 0 0 Z " fill="#96A1AB" transform="translate(56,103)" />
<path d="M0 0 C2.02350324 3.03525486 2.32124018 4.19426202 2.625 7.6875 C2.69976562 8.49574219 2.77453125 9.30398437 2.8515625 10.13671875 C2.92503906 11.05904297 2.92503906 11.05904297 3 12 C2.34 11.67 1.68 11.34 1 11 C1 9.68 1 8.36 1 7 C-0.32 7.33 -1.64 7.66 -3 8 C-3.66 6.02 -4.32 4.04 -5 2 C-2 0 -2 0 0 0 Z " fill="#AAB2B9" transform="translate(113,40)" />
<path d="M0 0 C1.04607422 1.07507813 1.04607422 1.07507813 2.11328125 2.171875 C4.99182421 5.04940332 8.05083515 7.6600221 11.1875 10.25 C11.72052734 10.69601563 12.25355469 11.14203125 12.80273438 11.6015625 C15.73411726 14.04808101 15.73411726 14.04808101 19 16 C18.67 16.66 18.34 17.32 18 18 C3.78628231 8.10437376 3.78628231 8.10437376 0 3 C0 2.01 0 1.02 0 0 Z " fill="#506373" transform="translate(58,84)" />
<path d="M0 0 C2.475 0.495 2.475 0.495 5 1 C5.36923077 7.52307692 5.36923077 7.52307692 3.5 9.9375 C3.005 10.288125 2.51 10.63875 2 11 C-0.67927341 6.98108988 -0.15601248 4.75838077 0 0 Z " fill="#31475C" transform="translate(69,64)" />
<path d="M0 0 C0.33 0 0.66 0 1 0 C1 5.94 1 11.88 1 18 C0.34 18 -0.32 18 -1 18 C-1.33 18.99 -1.66 19.98 -2 21 C-1.86179731 17.6871348 -1.71316222 14.37482011 -1.5625 11.0625 C-1.52318359 10.11697266 -1.48386719 9.17144531 -1.44335938 8.19726562 C-1.40146484 7.29814453 -1.35957031 6.39902344 -1.31640625 5.47265625 C-1.27974854 4.64000244 -1.24309082 3.80734863 -1.20532227 2.94946289 C-1 1 -1 1 0 0 Z " fill="#9CA0A5" transform="translate(149,55)" />
<path d="M0 0 C0.99 0.495 0.99 0.495 2 1 C1.67 2.32 1.34 3.64 1 5 C1.66 5 2.32 5 3 5 C3.66 9.62 4.32 14.24 5 19 C4.34 19.33 3.68 19.66 3 20 C1 18 1 18 0.8125 14.625 C0.95589337 11.85272822 1.16289742 9.61594556 2 7 C1.34 7 0.68 7 0 7 C0 4.69 0 2.38 0 0 Z " fill="#BEC4C9" transform="translate(81,79)" />
<path d="M0 0 C1.32 0.33 2.64 0.66 4 1 C4.80967438 3.91482778 5.21845993 5.46113217 4.0625 8.3125 C3.5365625 9.1478125 3.5365625 9.1478125 3 10 C2.67 9.01 2.34 8.02 2 7 C0.68 7 -0.64 7 -2 7 C-2.33 6.01 -2.66 5.02 -3 4 C-1.5625 1.8125 -1.5625 1.8125 0 0 Z " fill="#495C70" transform="translate(72,59)" />
<path d="M0 0 C1.21236328 0.01353516 1.21236328 0.01353516 2.44921875 0.02734375 C3.37154297 0.04474609 3.37154297 0.04474609 4.3125 0.0625 C2.26016315 2.3102975 1.30582739 3.0647242 -1.6875 4.0625 C-3.24868428 4.12990865 -4.8125252 4.14764456 -6.375 4.125 C-7.58736328 4.11146484 -7.58736328 4.11146484 -8.82421875 4.09765625 C-9.74654297 4.08025391 -9.74654297 4.08025391 -10.6875 4.0625 C-7.4284026 0.49301238 -4.73606476 -0.06863862 0 0 Z " fill="#748898" transform="translate(120.6875,62.9375)" />
<path d="M0 0 C0.66 0.33 1.32 0.66 2 1 C1.01 2.32 0.02 3.64 -1 5 C-0.01 5.66 0.98 6.32 2 7 C-0.35438733 8.42944945 -1.48032433 9.08661261 -4.25 8.625 C-4.8275 8.41875 -5.405 8.2125 -6 8 C-5.8125 5.6875 -5.8125 5.6875 -5 3 C-2.5625 1.125 -2.5625 1.125 0 0 Z " fill="#7A8B99" transform="translate(76,23)" />
<path d="M0 0 C1.9451 2.91765 2.45276317 4.62537285 3 8 C0.6875 8.625 0.6875 8.625 -2 9 C-2.99 8.34 -3.98 7.68 -5 7 C-4.34 5.35 -3.68 3.7 -3 2 C-2.34 2.33 -1.68 2.66 -1 3 C-0.67 2.01 -0.34 1.02 0 0 Z " fill="#969FA7" transform="translate(43,82)" />
<path d="M0 0 C0.66 0 1.32 0 2 0 C2.75 2.25 2.75 2.25 3 5 C1.0625 7.3125 1.0625 7.3125 -1 9 C-2.65 7.35 -4.3 5.7 -6 4 C-4.02 3.67 -2.04 3.34 0 3 C0 2.01 0 1.02 0 0 Z " fill="#63727F" transform="translate(107,47)" />
<path d="M0 0 C0.66 1.32 1.32 2.64 2 4 C-2.49656104 6.24828052 -6.07872966 6.16682272 -11 6 C-9.5836933 3.1673866 -7.85502707 2.98292167 -4.9375 1.875 C-4.01839844 1.52179688 -3.09929687 1.16859375 -2.15234375 0.8046875 C-1.44207031 0.53914063 -0.73179688 0.27359375 0 0 Z " fill="#BDCAD6" transform="translate(75,102)" />
<path d="M0 0 C1.32 0.33 2.64 0.66 4 1 C4 4 4 4 2.3125 5.75 C0 7 0 7 -2.75 6.6875 C-3.4925 6.460625 -4.235 6.23375 -5 6 C-3.35 4.02 -1.7 2.04 0 0 Z " fill="#ADB1B5" transform="translate(60,73)" />
<path d="M0 0 C0.66 0.33 1.32 0.66 2 1 C-3.96583144 9.81548975 -3.96583144 9.81548975 -9 11 C-6.62245212 6.50907623 -3.6393937 3.47764287 0 0 Z " fill="#5C6269" transform="translate(145,126)" />
<path d="M0 0 C4.39999343 1.37499795 7.47916831 3.81905115 11.0625 6.6015625 C13.2578089 8.18607981 15.41750804 9.19297126 18 10 C18 10.66 18 11.32 18 12 C10.79447882 10.15243047 4.21364506 6.18001276 0 0 Z " fill="#2E4458" transform="translate(36,107)" />
<path d="M0 0 C0.33 1.32 0.66 2.64 1 4 C-0.59576199 5.50893816 -2.20189911 7.00691076 -3.8125 8.5 C-4.70582031 9.3353125 -5.59914063 10.170625 -6.51953125 11.03125 C-9 13 -9 13 -12 13 C-7.375 7.125 -7.375 7.125 -4 6 C-2.79117904 3.99983534 -2.79117904 3.99983534 -2 2 C-1.34 2 -0.68 2 0 2 C0 1.34 0 0.68 0 0 Z " fill="#31495E" transform="translate(101,84)" />
<path d="M0 0 C4.17950077 3.45889719 5.32762134 6.98286401 7 12 C6.34 12 5.68 12 5 12 C5 11.01 5 10.02 5 9 C3.7934375 8.690625 3.7934375 8.690625 2.5625 8.375 C1.2940625 7.694375 1.2940625 7.694375 0 7 C-0.875 3.9375 -0.875 3.9375 -1 1 C-0.67 0.67 -0.34 0.34 0 0 Z " fill="#B3B8BF" transform="translate(65,48)" />
<path d="M0 0 C0.66 0.66 1.32 1.32 2 2 C1.690625 3.010625 1.38125 4.02125 1.0625 5.0625 C0.02352081 8.6731369 -0.54311181 12.26874647 -1 16 C-1.33 16 -1.66 16 -2 16 C-2.22304441 14.25181409 -2.4278645 12.50129677 -2.625 10.75 C-2.74101563 9.77546875 -2.85703125 8.8009375 -2.9765625 7.796875 C-3.00130917 4.84377245 -2.56795646 3.45909718 -1 1 C-0.67 0.67 -0.34 0.34 0 0 Z " fill="#D2D7DC" transform="translate(82,40)" />
<path d="M0 0 C1.65 0.33 3.3 0.66 5 1 C5.625 2.8125 5.625 2.8125 6 5 C5.01 6.485 5.01 6.485 4 8 C3.34 6.68 2.68 5.36 2 4 C1.01 4.99 0.02 5.98 -1 7 C-1.625 5.1875 -1.625 5.1875 -2 3 C-1.34 2.01 -0.68 1.02 0 0 Z " fill="#B6BFC6" transform="translate(38,52)" />
<path d="M0 0 C0.99 0.33 1.98 0.66 3 1 C2.7186941 3.45993028 2.42547269 5.91740248 2.125 8.375 C2.04636719 9.07367188 1.96773438 9.77234375 1.88671875 10.4921875 C1.2265625 15.7734375 1.2265625 15.7734375 -1 18 C-2 15 -2 15 -1.0625 11.8125 C0.11806548 7.57635329 0.15314572 4.36465301 0 0 Z " fill="#C6CBD0" transform="translate(74,78)" />
<path d="M0 0 C1.65 0.33 3.3 0.66 5 1 C4.67 2.65 4.34 4.3 4 6 C2.35 5.67 0.7 5.34 -1 5 C-0.67 3.35 -0.34 1.7 0 0 Z " fill="#BBC3CB" transform="translate(121,44)" />
<path d="M0 0 C0.66 0.33 1.32 0.66 2 1 C2.17835515 5.54805635 1.99785435 8.8794254 0 13 C-0.33 13 -0.66 13 -1 13 C-1.02686553 11.02090602 -1.04633375 9.04171029 -1.0625 7.0625 C-1.07410156 5.96035156 -1.08570313 4.85820313 -1.09765625 3.72265625 C-1 1 -1 1 0 0 Z " fill="#717881" transform="translate(148,95)" />
<path d="M0 0 C1.67542976 0.28604898 3.34385343 0.61781233 5 1 C4.67 2.32 4.34 3.64 4 5 C2.35 5.33 0.7 5.66 -1 6 C-1.042721 4.33388095 -1.04063832 2.66617115 -1 1 C-0.67 0.67 -0.34 0.34 0 0 Z " fill="#909EA7" transform="translate(104,83)" />
<path d="M0 0 C0.75732422 0.00966797 1.51464844 0.01933594 2.29492188 0.02929688 C3.08060547 0.05443359 3.86628906 0.07957031 4.67578125 0.10546875 C5.87170898 0.12577148 5.87170898 0.12577148 7.09179688 0.14648438 C9.05758092 0.18179786 11.02301707 0.23560428 12.98828125 0.29296875 C12.98828125 0.62296875 12.98828125 0.95296875 12.98828125 1.29296875 C7.70828125 1.29296875 2.42828125 1.29296875 -3.01171875 1.29296875 C-3.67171875 2.61296875 -4.33171875 3.93296875 -5.01171875 5.29296875 C-7.13671875 6.54296875 -7.13671875 6.54296875 -9.01171875 7.29296875 C-6.98598374 2.77402143 -5.24865263 -0.11839066 0 0 Z " fill="#2B3F51" transform="translate(93.01171875,70.70703125)" />
<path d="M0 0 C2.53937969 1.12697277 4.66021098 2.47197452 7 4 C6.01 4.33 5.02 4.66 4 5 C3.443125 4.690625 2.88625 4.38125 2.3125 4.0625 C-1.15495121 2.46934674 -4.2055224 2.87351741 -8 3 C-8.33 2.34 -8.66 1.68 -9 1 C-5.88111322 -0.55944339 -3.4545855 -0.28316275 0 0 Z " fill="#788692" transform="translate(83,56)" />
<path d="M0 0 C2.64 0.33 5.28 0.66 8 1 C5.53846154 4.81538462 5.53846154 4.81538462 2.8125 5.75 C2.214375 5.8325 1.61625 5.915 1 6 C0 1.125 0 1.125 0 0 Z " fill="#21374B" transform="translate(104,89)" />
<path d="M0 0 C1.67542976 0.28604898 3.34385343 0.61781233 5 1 C4.3125 2.9375 4.3125 2.9375 3 5 C0.375 5.75 0.375 5.75 -2 6 C-1.125 1.125 -1.125 1.125 0 0 Z " fill="#CED6DE" transform="translate(78,63)" />
<path d="M0 0 C0.99 0 1.98 0 3 0 C1.515 6.435 1.515 6.435 0 13 C-0.66 12.67 -1.32 12.34 -2 12 C-2.17835515 7.45194365 -1.99785435 4.1205746 0 0 Z " fill="#273F54" transform="translate(35,51)" />
<path d="M0 0 C1.10546875 1.7421875 1.10546875 1.7421875 2 4 C1.42578125 6.0703125 1.42578125 6.0703125 0.3125 8.125 C-0.04199219 8.80820313 -0.39648438 9.49140625 -0.76171875 10.1953125 C-2 12 -2 12 -5 14 C-4.28269264 10.76834156 -3.18684926 7.81292078 -1.9375 4.75 C-1.57527344 3.85796875 -1.21304688 2.9659375 -0.83984375 2.046875 C-0.56269531 1.37140625 -0.28554687 0.6959375 0 0 Z " fill="#394C5F" transform="translate(120,84)" />
<path d="M0 0 C2.67898799 2.67898799 2.65747987 4.2322786 3 8 C2.87939612 11.03519762 2.71597158 14.04272609 2 17 C1.34 17.33 0.68 17.66 0 18 C0 12.06 0 6.12 0 0 Z " fill="#C7CFD7" transform="translate(135,63)" />
<path d="M0 0 C1.63129887 4.06285757 0.29968777 7.20102184 -0.9375 11.25 C-1.31777344 12.51328125 -1.69804687 13.7765625 -2.08984375 15.078125 C-2.39019531 16.04234375 -2.69054687 17.0065625 -3 18 C-3.33 18 -3.66 18 -4 18 C-2.84095861 2.84095861 -2.84095861 2.84095861 0 0 Z " fill="#C3CDD6" transform="translate(25,46)" />
<path d="M0 0 C2.64 0 5.28 0 8 0 C5.48169253 3.12270126 4.2738451 3.94523098 0.25 4.75 C-1.35875 4.87375 -1.35875 4.87375 -3 5 C-2.505 4.360625 -2.01 3.72125 -1.5 3.0625 C0.09802862 1.29025661 0.09802862 1.29025661 0 0 Z " fill="#677784" transform="translate(66,19)" />
<path d="M0 0 C2.1875 0.3125 2.1875 0.3125 4 1 C2.63016497 4.16115776 2.0109362 4.9927092 -1 7 C-1.66 5.68 -2.32 4.36 -3 3 C-1.75 1.4375 -1.75 1.4375 0 0 Z " fill="#1B364F" transform="translate(116,106)" />
<path d="M0 0 C0.66 0 1.32 0 2 0 C1.34 3.3 0.68 6.6 0 10 C-0.99 10 -1.98 10 -3 10 C-4.6875 8 -4.6875 8 -6 6 C-5.38125 5.938125 -4.7625 5.87625 -4.125 5.8125 C-1.72238859 5.171081 -1.72238859 5.171081 -0.75 2.4375 C-0.5025 1.633125 -0.255 0.82875 0 0 Z " fill="#B7BEC4" transform="translate(73,86)" />
<path d="M0 0 C0.99 0.33 1.98 0.66 3 1 C3.66 4.63 4.32 8.26 5 12 C4.34 12 3.68 12 3 12 C0.50494038 9.50494038 0.64051624 8.32671112 0.375 4.875 C0.30023437 3.96492188 0.22546875 3.05484375 0.1484375 2.1171875 C0.09945313 1.41851562 0.05046875 0.71984375 0 0 Z " fill="#666E78" transform="translate(7,104)" />
<path d="M0 0 C1.65 0.33 3.3 0.66 5 1 C4 4 4 4 1.9375 5.1875 C1.298125 5.455625 0.65875 5.72375 0 6 C-1.125 2.25 -1.125 2.25 0 0 Z M7 -1 C7.33 -0.34 7.66 0.32 8 1 C7.01 0.67 6.02 0.34 5 0 C5.66 -0.33 6.32 -0.66 7 -1 Z " fill="#BABEC4" transform="translate(55,72)" />
<path d="M0 0 C1.67542976 0.28604898 3.34385343 0.61781233 5 1 C5 2.32 5 3.64 5 5 C3.35 5 1.7 5 0 5 C-0.5625 3.0625 -0.5625 3.0625 -1 1 C-0.67 0.67 -0.34 0.34 0 0 Z " fill="#B2BAC2" transform="translate(100,46)" />
<path d="M0 0 C4.29 0 8.58 0 13 0 C13 0.99 13 1.98 13 3 C11.35 3.33 9.7 3.66 8 4 C8 3.34 8 2.68 8 2 C5.36 1.67 2.72 1.34 0 1 C0 0.67 0 0.34 0 0 Z " fill="#E3E7E9" transform="translate(50,0)" />
<path d="M0 0 C0.33 0.66 0.66 1.32 1 2 C-0.32 3.32 -1.64 4.64 -3 6 C-3.33 5.67 -3.66 5.34 -4 5 C-4.66 5.66 -5.32 6.32 -6 7 C-7.32 6.34 -8.64 5.68 -10 5 C-6.7 3.35 -3.4 1.7 0 0 Z " fill="#C5CFD9" transform="translate(84,115)" />
<path d="M0 0 C0.99 0.33 1.98 0.66 3 1 C1.90536178 2.17561146 0.79892814 3.3402489 -0.3125 4.5 C-0.92738281 5.1496875 -1.54226562 5.799375 -2.17578125 6.46875 C-4 8 -4 8 -7 8 C-7 6 -7 6 -5.57421875 4.45703125 C-4.95160156 3.91433594 -4.32898438 3.37164062 -3.6875 2.8125 C-3.07261719 2.26207031 -2.45773438 1.71164063 -1.82421875 1.14453125 C-1.22222656 0.76683594 -0.62023437 0.38914062 0 0 Z " fill="#1E364D" transform="translate(102,95)" />
<path d="M0 0 C2.63886669 3.18483911 5.14494105 6.2898821 7 10 C6.67 10.99 6.34 11.98 6 13 C5.0165504 11.56542672 4.03839079 10.12722594 3.0625 8.6875 C2.51722656 7.88699219 1.97195312 7.08648437 1.41015625 6.26171875 C0 4 0 4 -1 1 C-0.67 0.67 -0.34 0.34 0 0 Z " fill="#3F5162" transform="translate(37,87)" />
<path d="M0 0 C-0.639375 0.28875 -1.27875 0.5775 -1.9375 0.875 C-4.15206079 1.82823451 -4.15206079 1.82823451 -5 4 C-7.64 4 -10.28 4 -13 4 C-8.93522219 0.68795882 -5.26054188 -1.94834884 0 0 Z " fill="#8495A4" transform="translate(132,63)" />
<path d="M0 0 C0.99 0 1.98 0 3 0 C3 2.64 3 5.28 3 8 C2.01 8 1.02 8 0 8 C0 5.36 0 2.72 0 0 Z " fill="#8B8F95" transform="translate(7,80)" />
<path d="M0 0 C2.83022097 3.99560608 1.76210446 7.42737323 1 12 C0.67 12 0.34 12 0 12 C-0.2165625 10.63875 -0.2165625 10.63875 -0.4375 9.25 C-0.90623358 6.13935446 -0.90623358 6.13935446 -1.6875 3.75 C-1.790625 3.1725 -1.89375 2.595 -2 2 C-1.34 1.34 -0.68 0.68 0 0 Z " fill="#8294A2" transform="translate(132,68)" />
<path d="M0 0 C0.66 0.33 1.32 0.66 2 1 C0.54712339 2.33927721 -0.91247259 3.67126847 -2.375 5 C-3.18710937 5.7425 -3.99921875 6.485 -4.8359375 7.25 C-7 9 -7 9 -9 9 C-7.75282088 5.25846263 -5.90112219 3.62482484 -3 1 C-2.01 0.67 -1.02 0.34 0 0 Z " fill="#566674" transform="translate(46,24)" />
<path d="M0 0 C2 2 2 2 2 4 C-0.31 5.32 -2.62 6.64 -5 8 C-5 6.68 -5 5.36 -5 4 C-2.5 1.75 -2.5 1.75 0 0 Z " fill="#9DA7B2" transform="translate(99,103)" />
<path d="M0 0 C0.5775 0.20625 1.155 0.4125 1.75 0.625 C2.08 1.945 2.41 3.265 2.75 4.625 C-0.22 3.635 -3.19 2.645 -6.25 1.625 C-2.25 -0.375 -2.25 -0.375 0 0 Z " fill="#6E7F8D" transform="translate(92.25,34.375)" />
<path d="M0 0 C0.99 0 1.98 0 3 0 C2.67 2.31 2.34 4.62 2 7 C1.34 7 0.68 7 0 7 C-0.33 7.66 -0.66 8.32 -1 9 C-2.0326802 6.21176345 -2.04509293 5.1322726 -1.0625 2.25 C-0.711875 1.5075 -0.36125 0.765 0 0 Z " fill="#89929C" transform="translate(131,90)" />
<path d="M0 0 C1.45792884 -0.05399736 2.91642712 -0.09279177 4.375 -0.125 C5.18710938 -0.14820312 5.99921875 -0.17140625 6.8359375 -0.1953125 C9 0 9 0 11 2 C8.3125 3.25 8.3125 3.25 5 4 C2.125 2.125 2.125 2.125 0 0 Z " fill="#B4BEC5" transform="translate(88,31)" />
<path d="M0 0 C4 6 4 6 4 10 C3.01 9.67 2.02 9.34 1 9 C1 7.68 1 6.36 1 5 C0.34 5 -0.32 5 -1 5 C-0.67 3.35 -0.34 1.7 0 0 Z " fill="#A8ADB3" transform="translate(83,79)" />
<path d="M0 0 C1.39864092 3.17872935 0.89282517 4.30111022 -0.3125 7.6875 C-2 11 -2 11 -4 12 C-3.67 9.69 -3.34 7.38 -3 5 C-2.34 5 -1.68 5 -1 5 C-0.67 3.35 -0.34 1.7 0 0 Z " fill="#234460" transform="translate(31,50)" />
<path d="M0 0 C0.33 0.66 0.66 1.32 1 2 C0.2575 2.144375 -0.485 2.28875 -1.25 2.4375 C-3.92811274 2.93631867 -3.92811274 2.93631867 -6.1875 3.6875 C-6.785625 3.790625 -7.38375 3.89375 -8 4 C-8.66 3.34 -9.32 2.68 -10 2 C-8.71211992 1.46987262 -7.41953322 0.9511671 -6.125 0.4375 C-5.40570313 0.14746094 -4.68640625 -0.14257812 -3.9453125 -0.44140625 C-2 -1 -2 -1 0 0 Z " fill="#838E9B" transform="translate(110,118)" />
<path d="M0 0 C0.33 1.32 0.66 2.64 1 4 C0.34 4 -0.32 4 -1 4 C-1 3.34 -1 2.68 -1 2 C-2.65 2.66 -4.3 3.32 -6 4 C-6.66 3.01 -7.32 2.02 -8 1 C-5.10765685 0.17361624 -3.11257569 0 0 0 Z " fill="#8A949D" transform="translate(47,89)" />
<path d="M0 0 C0.91058531 3.07322544 1.08886184 5.80097361 1 9 C0.01 9.495 0.01 9.495 -1 10 C-1.33 7.03 -1.66 4.06 -2 1 C-1.34 0.67 -0.68 0.34 0 0 Z " fill="#50667B" transform="translate(129,83)" />
<path d="M0 0 C0.33 1.32 0.66 2.64 1 4 C2.32 4.33 3.64 4.66 5 5 C2.39417629 5.93065133 1.35801776 6.14917407 -1.25 5.0625 C-1.8275 4.711875 -2.405 4.36125 -3 4 C-2.01 2.68 -1.02 1.36 0 0 Z " fill="#A7B0B7" transform="translate(58,56)" />
<path d="M0 0 C0.66 0.33 1.32 0.66 2 1 C2.33 1.99 2.66 2.98 3 4 C1.35 4.66 -0.3 5.32 -2 6 C-2.33 4.68 -2.66 3.36 -3 2 C-2.01 1.34 -1.02 0.68 0 0 Z " fill="#C2C6C9" transform="translate(21,2)" />
<path d="M0 0 C1.32 0 2.64 0 4 0 C4 2.31 4 4.62 4 7 C3.34 7 2.68 7 2 7 C1.34 4.69 0.68 2.38 0 0 Z " fill="#EBEBEC" transform="translate(148,16)" />
<path d="M0 0 C0.66 0.99 1.32 1.98 2 3 C2.66 2.67 3.32 2.34 4 2 C4 3.32 4 4.64 4 6 C1.03 5.505 1.03 5.505 -2 5 C-1.34 3.35 -0.68 1.7 0 0 Z " fill="#344656" transform="translate(109,84)" />
<path d="M0 0 C0.33 0.99 0.66 1.98 1 3 C-0.98 4.32 -2.96 5.64 -5 7 C-5.66 6.67 -6.32 6.34 -7 6 C-4.69 4.02 -2.38 2.04 0 0 Z " fill="#BECBD7" transform="translate(93,108)" />
<path d="M0 0 C0 0.66 0 1.32 0 2 C-2.64 2 -5.28 2 -8 2 C-6.14210462 -1.71579076 -3.44525918 -1.06921837 0 0 Z " fill="#B2BECA" transform="translate(72,106)" />
<path d="M0 0 C1.9451 2.91765 2.45276317 4.62537285 3 8 C2.01 8.495 2.01 8.495 1 9 C0.34 8.34 -0.32 7.68 -1 7 C-0.625 3.375 -0.625 3.375 0 0 Z " fill="#41586E" transform="translate(126,86)" />
<path d="M0 0 C-5.625 3 -5.625 3 -9 3 C-8.67 2.01 -8.34 1.02 -8 0 C-5.04215769 -1.22393475 -3.00272755 -0.96516243 0 0 Z " fill="#697D8E" transform="translate(116,64)" />
<path d="M0 0 C0.99 0.33 1.98 0.66 3 1 C0.63379989 3.61527381 -1.942048 5.26440562 -5 7 C-3.70700306 4.11562221 -2.34058637 2.12780579 0 0 Z " fill="#526475" transform="translate(55,40)" />
<path d="M0 0 C1.98 0 3.96 0 6 0 C6 0.99 6 1.98 6 3 C3.69 3 1.38 3 -1 3 C-0.67 2.01 -0.34 1.02 0 0 Z " fill="#BDC5C9" transform="translate(89,16)" />
</svg>